<?xml version="1.0" encoding="UTF-8"?>
<!DOCTYPE svg PUBLIC "-//W3C//DTD SVG 1.1//EN" "http://www.w3.org/Graphics/SVG/1.1/DTD/svg11.dtd">
<!-- Creator: CorelDRAW X7 -->
<svg xmlns="http://www.w3.org/2000/svg" xml:space="preserve" width="203.616mm" height="70.629mm" version="1.1" style="shape-rendering:geometricPrecision; text-rendering:geometricPrecision; image-rendering:optimizeQuality; fill-rule:evenodd; clip-rule:evenodd"
viewBox="0 0 20362 7063"
 xmlns:xlink="http://www.w3.org/1999/xlink">
 <defs>
  <style type="text/css">
   <![CDATA[
    .fil1 {fill:#131718}
    .fil3 {fill:#717273}
    .fil2 {fill:#B98A2D}
    .fil4 {fill:#2B2A29;fill-rule:nonzero}
    .fil0 {fill:#BF8C26;fill-rule:nonzero}
   ]]>
  </style>
 </defs>
<symbol id="Fm30-53-0" viewBox="8301 12680 3785 3217">
 <path class="fil0" d="M11233 12913c14,-5 27,-12 38,-21 12,-8 24,-17 38,-25 12,-9 24,-17 36,-25 13,-9 25,-17 37,-26 -17,-6 -34,-12 -49,-19 -16,-7 -31,-12 -45,-15 -59,-20 -120,-34 -182,-44 -63,-10 -136,-15 -221,-15 -39,0 -82,0 -127,2 -46,1 -95,5 -149,10 -79,6 -162,18 -250,37 -88,18 -181,46 -280,82 -215,71 -399,152 -552,246 -153,93 -279,190 -378,291 -135,141 -232,273 -288,394 -57,121 -85,234 -85,338 0,17 1,33 2,49 1,15 4,30 7,44 14,88 48,157 103,206 56,50 121,75 198,75 31,0 62,-5 93,-13 31,-9 62,-21 93,-38 51,-29 103,-63 155,-104 53,-41 107,-93 164,-155 54,-57 103,-119 148,-187 45,-68 88,-146 128,-233 45,-97 79,-180 101,-251 23,-70 39,-140 47,-208 3,-22 5,-45 7,-68 1,-22 2,-45 2,-68l21 -8c14,57 25,113 34,170 8,56 12,116 12,178 0,23 0,47 -2,72 -1,26 -3,51 -6,76 -14,153 -45,284 -93,391 -48,107 -116,202 -204,284 -20,20 -41,38 -64,56 -22,16 -45,32 -68,46 -28,17 -55,33 -82,47 -27,14 -55,27 -83,38 -48,20 -95,34 -140,42 -45,9 -89,13 -132,13l-8 0 -9 0c-147,-3 -262,-44 -345,-123 -84,-79 -126,-192 -126,-339 0,-20 1,-39 2,-58 2,-18 4,-37 7,-57 5,-45 20,-96 44,-154 24,-58 68,-136 130,-235 90,-141 222,-277 394,-408 173,-131 391,-247 654,-349 59,-22 117,-43 172,-61 55,-19 108,-34 159,-45 62,-14 125,-25 189,-34 64,-8 132,-15 206,-21 39,-6 76,-9 110,-9l102 0c70,3 131,7 182,11 51,4 95,9 132,15 11,0 22,1 32,2 9,1 19,4 27,6 91,20 149,33 176,39 27,5 46,11 58,17l148 -60c6,0 11,-1 17,-2 6,-1 11,-3 17,-6 14,-3 32,-7 53,-11 21,-4 46,-9 74,-15l9 26c-31,8 -62,19 -93,32 -32,12 -61,26 -89,40 -6,3 -12,5 -18,8 -5,3 -11,5 -17,5 0,2 -1,4 -4,4 -3,0 -4,1 -4,4 -3,0 -6,1 -11,2 -4,2 -7,4 -10,6 8,3 17,8 27,13 10,6 19,10 28,13 9,6 18,11 27,15 10,4 20,9 28,15 141,79 243,162 306,249 62,88 93,191 93,309l0 17 0 17c0,6 -1,11 -2,17 -2,6 -2,11 -2,17 -3,25 -7,51 -13,76 -6,25 -13,51 -21,76 -23,48 -53,97 -92,148 -38,51 -88,103 -150,157 -37,36 -82,71 -136,103 -54,32 -110,61 -170,87l-72 25 -119 43 -148 55 -51 17c74,68 126,140 157,215 31,76 47,168 47,276 0,28 -1,59 -2,92 -2,32 -5,67 -11,104l-81 363c-8,46 -15,86 -21,120 -6,34 -11,67 -17,98l-4 30 -4 111 0 13 0 6 0 6 0 13 0 8 0 9c2,17 14,28 34,34 19,6 45,-1 76,-21 3,-3 6,-5 8,-7 3,-1 6,-2 9,-2 17,-11 37,-27 59,-46 23,-20 60,-56 111,-106 19,-20 41,-43 63,-69 23,-25 51,-59 85,-101 26,-29 50,-58 72,-87 23,-30 45,-60 68,-92 6,-8 12,-18 19,-29 7,-12 15,-23 24,-34l46 -5c-5,12 -11,22 -17,30 -5,9 -11,19 -17,30 -8,8 -15,18 -21,27 -6,10 -11,20 -17,28 -119,170 -223,297 -312,382 -89,85 -174,143 -256,174 -15,6 -29,11 -43,17 -14,6 -28,10 -42,13 -17,5 -34,9 -51,10 -17,2 -34,3 -51,3 -91,0 -168,-32 -231,-94 -64,-63 -97,-147 -100,-252 0,-20 1,-39 2,-56 1,-17 2,-34 2,-51 9,-54 23,-113 45,-177 21,-64 55,-151 104,-262 17,-40 34,-78 51,-113 17,-36 34,-72 50,-109 34,-66 58,-121 72,-167 15,-45 22,-88 22,-128l0 -23c0,-7 -2,-15 -4,-24 0,-14 -2,-29 -5,-44 -3,-16 -7,-32 -13,-49 -8,2 -17,5 -27,6 -10,1 -22,2 -36,2 -20,-3 -42,-6 -68,-11 -25,-4 -51,-12 -76,-23 -6,-3 -11,-6 -15,-8 -4,-3 -10,-6 -15,-9 -6,0 -11,-1 -15,-4 -4,-3 -9,-6 -15,-9 -3,-5 -6,-12 -10,-19 -5,-7 -7,-15 -7,-23l0 -9c0,-2 2,-5 5,-8 2,-6 4,-10 4,-13 5,-14 17,-25 34,-34 17,-8 37,-12 59,-12 23,0 47,3 72,10 26,7 56,19 89,36 9,3 17,6 24,9 7,3 13,7 19,12 113,-19 209,-62 288,-127 80,-64 150,-157 212,-279 54,-113 93,-214 117,-305 24,-90 36,-169 36,-236l0 -38c0,-11 -1,-23 -4,-34 -11,-102 -40,-182 -87,-241 -47,-59 -107,-99 -180,-119 -37,20 -72,42 -106,66 -34,24 -67,51 -98,82 -68,60 -127,128 -178,205 -51,78 -102,177 -153,299 -14,42 -30,85 -47,130 -17,46 -34,95 -51,149l-80 249 -21 72 -56 174 -12 38 -64 222c-20,66 -36,117 -49,154 -13,37 -23,70 -31,98 -3,3 -6,7 -7,11 -1,4 -4,9 -6,15 -28,65 -53,121 -74,168 -22,47 -42,88 -62,122 -14,25 -28,48 -40,68 -13,20 -27,40 -41,60 -22,25 -46,53 -72,83 -25,30 -56,63 -93,100 -54,54 -104,102 -151,143 -46,42 -93,78 -138,109 -54,37 -109,68 -165,92 -57,24 -120,45 -191,62 -105,25 -186,44 -244,55 -58,11 -109,17 -151,17l-15 0 -15 0c-2,-3 -6,-4 -10,-4l-15 0c-130,-6 -234,-23 -312,-51 -78,-28 -142,-67 -193,-115 -31,-31 -59,-63 -83,-95 -24,-33 -43,-66 -57,-100 -14,-28 -24,-57 -30,-85 -6,-28 -8,-55 -8,-81 0,-99 11,-177 34,-235 22,-58 52,-104 89,-138 36,-37 76,-63 119,-81 42,-17 86,-25 131,-25l17 0c6,0 11,2 17,4 6,0 12,1 17,2 6,2 11,2 17,2 51,12 92,38 123,79 31,41 45,87 42,138l0 25c0,9 -1,16 -4,22 0,8 -1,16 -4,25 -3,8 -5,17 -8,26 -20,53 -54,94 -100,123 -47,28 -123,53 -227,76 -28,6 -54,21 -76,46 -23,26 -36,59 -39,98l0 9 0 8c0,37 15,73 45,108 29,36 78,72 146,109 37,16 81,30 132,40 51,10 107,15 169,15l15 0 11 0c79,-3 150,-14 212,-32 62,-19 122,-54 178,-105 57,-48 114,-113 172,-194 58,-81 124,-185 198,-313 22,-40 48,-90 78,-150 30,-59 67,-139 113,-238l42 -103 98 -213 12 -30 132 -273c48,-93 85,-166 112,-220 27,-54 52,-100 74,-139 3,-6 6,-12 9,-18 3,-5 7,-11 13,-17 3,-5 6,-11 10,-18 5,-8 10,-15 15,-24 40,-62 78,-118 115,-169 37,-51 72,-97 106,-140 42,-50 84,-98 125,-143 41,-45 86,-89 134,-132 45,-39 94,-80 146,-122 53,-43 110,-86 172,-131l0 -5z"/>
</symbol>
 <g id="Layer_x0020_1">
  <metadata id="CorelCorpID_0Corel-Layer"/>
  <g id="_2505791826544">
   <rect id="XMLID_72_" class="fil1" x="5576" y="484" width="32.74" height="6095.6"/>
   <g>
    <g>
     <g>
      <g>
       <path class="fil2" d="M892 4850l32 0c32,0 51,-2 63,-12 13,-7 18,-22 18,-39 0,-12 -3,-20 -10,-30 -5,-7 -15,-14 -22,-17 -10,-2 -27,-5 -52,-5l-27 0 -2 103zm-98 -200l103 0c56,0 95,4 120,14 24,10 44,27 59,49 14,25 22,52 22,83 0,35 -8,62 -25,84 -15,22 -39,39 -73,51l120 225 -108 0 -113 -215 -9 0 0 215 -96 0 0 -506 0 0zm575 0l96 0 0 330c0,29 2,49 7,61 5,12 15,22 24,29 10,8 25,10 42,10 17,0 32,-2 44,-12 12,-7 22,-17 27,-29 5,-13 7,-35 7,-69l0 -318 98 0 0 303c0,52 -2,89 -10,108 -5,20 -17,39 -31,59 -18,19 -35,32 -57,41 -19,10 -46,15 -73,15 -34,0 -66,-7 -96,-24 -26,-18 -46,-40 -58,-64 -13,-27 -17,-68 -17,-130l-3 -310zm634 0l93 0 218 337 0 -337 95 0 0 511 -91 0 -217 -335 0 335 -98 0 0 -511zm660 0l96 0 73 325 91 -325 81 0 92 325 71 -325 96 0 -115 511 -93 0 -93 -330 -91 330 -90 0 -118 -511zm1055 134l-69 174 137 0 -68 -174zm-51 -134l97 0 196 509 -100 0 -39 -106 -206 0 -41 106 -101 0 194 -509zm548 0l98 0 0 418 139 0 0 93 -237 0 0 -511zm-174 1098l-2819 0c-156,0 -281,-122 -286,-276l3394 0c-13,154 -137,276 -289,276l0 0zm284 -367l-3524 0 0 328c0,174 140,313 311,313l3029 0c172,0 311,-139 311,-313l0 -328 -127 0zm0 -1076l-3394 0 0 -3267c0,-159 130,-288 289,-288l2818 0c160,0 289,129 289,288l-2 3267zm-181 -3829l-3027 0c-171,0 -311,139 -311,310l0 3607 3651 0 0 -3607c-5,-171 -144,-310 -313,-310z"/>
      </g>
      <g>
       <path class="fil2" d="M3870 2355c-213,337 -668,283 -668,283 0,0 117,-376 249,-756 79,-230 348,-398 348,-398 0,0 430,303 71,871l0 0zm-844 -194c-150,277 -353,854 -495,1114 -142,259 -540,587 -981,565 -438,-22 -1069,-316 -991,-1091 91,-894 859,-1160 1155,-1182 306,-22 421,41 421,41 0,0 -105,189 -140,343 -26,125 -58,413 98,590 211,234 580,95 580,95 0,0 -81,318 -252,509 -117,130 -335,377 -746,374 -568,-2 -788,-489 -810,-570 -22,-78 -39,-59 -19,0 17,61 225,595 829,587 844,-9 1042,-922 1042,-922 0,0 39,-25 79,-66 41,-39 66,-74 68,-130 3,-63 -24,-83 -32,-7 -7,88 -107,149 -107,149 0,0 58,-325 -118,-597 -176,-271 -416,-364 -416,-364 0,0 216,-382 835,-392 428,-7 729,220 729,220 0,0 -164,103 -262,181 -100,79 -321,277 -467,553l0 0zm-857 -526c0,0 262,123 428,411 164,284 79,541 79,541 0,0 -416,186 -602,-132 -125,-215 -44,-514 -12,-604 39,-106 107,-216 107,-216l0 0zm2476 -342c-22,-10 -46,-15 -68,-20 -61,-10 -125,-15 -191,-17 -355,-5 -580,142 -580,142 0,0 -401,-259 -886,-223 -570,47 -773,406 -773,406 0,0 -433,-144 -883,84 -450,227 -739,614 -739,1221 0,530 396,959 1057,973 438,13 1170,-230 1351,-624 85,-183 237,-528 237,-528 0,0 196,95 171,313 -15,130 -61,365 -5,548 57,184 299,311 529,296 232,-14 406,-95 452,-298 47,-201 -100,-382 -129,-436 -32,-56 -76,-34 -47,17 30,52 127,196 125,326 0,129 -95,286 -247,318 -152,32 -289,-44 -345,-145 -56,-100 -20,-540 -49,-658 -29,-115 -232,-281 -232,-281 0,0 741,-54 856,-553 103,-443 -377,-719 -377,-719 0,0 186,-155 519,-155 46,0 90,3 132,8 64,7 117,22 152,41 117,57 129,142 115,199 -13,61 -42,85 -54,93 -54,34 -96,31 -127,22 -20,-5 -35,-15 -44,-8 0,0 0,3 -3,3 -2,5 3,12 34,27 30,14 98,27 145,-3 24,-12 78,-56 83,-139 15,-76 -5,-169 -179,-230z"/>
      </g>
     </g>
     <g>
      <path class="fil3" d="M3084 5645c0,5 0,13 3,15 2,5 5,10 12,12 5,3 10,5 17,5 10,0 17,-2 25,-10 4,-4 7,-12 7,-22 0,-9 -3,-17 -10,-22 -7,-5 -15,-9 -24,-9 -10,0 -15,2 -22,9 -5,5 -10,13 -8,22l0 0zm5 -73c0,7 3,15 8,17 4,5 12,7 19,7 7,0 15,-2 17,-7 5,-5 8,-10 8,-17 0,-7 -3,-15 -8,-17 -5,-5 -10,-7 -17,-7 -5,0 -15,2 -17,7 -5,7 -7,12 -10,17l0 0zm7 34c-7,-2 -14,-7 -17,-12 -2,-5 -5,-12 -5,-20 0,-12 5,-22 13,-29 7,-7 17,-12 32,-12 14,0 24,5 34,12 7,7 12,17 12,29 0,8 0,15 -5,20 -2,5 -10,10 -17,12 10,3 17,8 22,15 5,7 7,15 7,24 0,15 -5,25 -14,35 -10,9 -22,14 -37,14 -15,0 -29,-5 -37,-14 -10,-10 -14,-20 -14,-35 0,-9 2,-17 7,-27 0,-4 7,-9 19,-12l0 0zm-151 -51l0 -20 103 0 0 15 -32 42c-10,17 -17,34 -22,53 -5,15 -8,30 -8,44l-19 0c0,-12 2,-26 7,-44 5,-17 12,-34 20,-51l27 -42 -76 3zm-42 29c0,-10 -2,-19 -10,-27 -7,-7 -12,-9 -19,-9 -10,0 -17,2 -22,9 -8,8 -10,15 -10,27 0,10 2,17 10,25 5,7 15,9 22,9 7,0 15,-2 22,-9 5,-3 7,-13 7,-25l0 0zm-78 71l17 -2c0,7 5,14 10,17 5,2 10,5 17,5 5,0 12,0 15,-3 5,-2 9,-7 12,-12 2,-5 5,-10 7,-17 3,-7 3,-15 3,-25l0 -2c-3,5 -10,12 -15,15 -7,5 -15,5 -22,5 -12,0 -24,-5 -32,-15 -10,-10 -15,-22 -15,-37 0,-14 5,-29 15,-39 10,-10 22,-15 34,-15 10,0 20,3 27,10 10,5 15,15 20,25 5,9 7,24 7,44 0,19 -2,36 -7,46 -5,10 -10,20 -20,27 -9,7 -19,10 -31,10 -13,0 -22,-3 -30,-10 -7,-5 -10,-15 -12,-27l0 0zm-51 32l-20 0 0 -122c-5,5 -10,9 -17,14 -8,5 -15,8 -20,10l0 -19c10,-5 20,-13 30,-18 7,-7 14,-14 17,-22l12 0 -2 157 0 0zm-238 -66l64 0c0,-10 -3,-15 -8,-22 -4,-7 -14,-12 -24,-12 -10,0 -15,2 -22,9 -5,10 -7,18 -10,25l0 0zm64 34l19 3c-2,12 -9,19 -17,27 -7,4 -19,9 -32,9 -14,0 -29,-5 -39,-14 -9,-10 -14,-25 -14,-44 0,-20 5,-35 14,-44 10,-10 22,-15 39,-15 15,0 27,5 37,15 10,9 15,24 15,44l0 5 -83 0c0,12 5,22 9,29 8,5 15,10 25,10 7,0 15,-3 17,-5 2,-10 7,-15 10,-20l0 0zm-113 -10l20 3c-3,15 -7,24 -15,32 -10,7 -19,12 -32,12 -14,0 -27,-5 -36,-15 -10,-10 -15,-24 -15,-44 0,-12 2,-22 7,-32 3,-9 10,-14 17,-19 10,-5 18,-8 27,-8 13,0 22,3 32,10 8,5 12,15 15,27l-17 3c-3,-8 -5,-15 -10,-18 -5,-2 -10,-4 -15,-4 -10,0 -17,2 -24,9 -5,8 -10,17 -10,32 0,15 2,27 10,32 5,7 14,10 22,10 7,0 14,-3 19,-8 0,-2 3,-12 5,-22l0 0zm-195 42l0 -113 17 0 0 15c9,-12 19,-17 36,-17 8,0 15,0 20,2 5,3 10,5 12,10 3,3 5,10 5,15l0 88 -20 0 0 -69c0,-7 0,-14 -2,-17 -2,-2 -5,-7 -10,-9 -2,-3 -7,-3 -14,-3 -8,0 -15,3 -22,7 -5,5 -10,15 -10,30l0 63 -12 -2zm-49 -113l19 0 0 113 -19 0 0 -113zm0 -44l19 0 0 22 -19 0 0 -22zm-150 108l20 -2c0,7 2,14 7,19 3,5 8,10 15,12 7,3 15,5 24,5 8,0 15,0 22,-2 5,-3 10,-5 15,-10 3,-2 5,-7 5,-15 0,-4 -2,-9 -5,-14 -2,-3 -7,-8 -15,-10 -4,0 -14,-5 -29,-7 -15,-3 -24,-8 -32,-10 -7,-3 -12,-10 -17,-15 -2,-5 -5,-12 -5,-19 0,-8 3,-15 8,-22 4,-8 12,-13 19,-15 10,-3 20,-5 30,-5 12,0 22,0 31,5 10,2 15,10 20,15 5,7 7,14 7,24l-19 0c0,-10 -5,-17 -13,-22 -4,-5 -14,-7 -26,-7 -13,0 -22,2 -30,7 -5,5 -7,10 -7,15 0,5 2,9 5,14 2,3 14,8 32,13l34 9c10,5 14,10 19,15 5,7 8,15 8,22 0,7 -3,15 -8,25 -5,7 -12,14 -19,17 -10,5 -20,7 -32,7 -15,0 -27,-2 -34,-7 -10,-5 -17,-10 -22,-17 -5,-5 -8,-15 -8,-25l0 0zm2273 803l59 0 -12 56 -56 0 9 -56zm-112 0l59 0 -13 56 -56 0 10 -56zm-115 0l56 0 -12 56 -59 0 15 -56zm-252 -5l56 -8c5,13 12,20 20,25 7,5 17,7 29,7 15,0 24,-2 32,-10 5,-5 7,-9 7,-14 0,-3 0,-8 -5,-10 -2,-3 -10,-7 -24,-12 -34,-13 -56,-20 -64,-27 -14,-10 -19,-25 -19,-42 0,-17 5,-32 19,-44 17,-17 44,-27 78,-27 27,0 49,5 64,15 15,10 22,24 27,41l-51 10c-3,-7 -8,-14 -15,-17 -7,-5 -17,-7 -32,-7 -15,0 -19,2 -27,7 -5,3 -7,10 -7,15 0,5 2,10 7,14 3,3 15,8 32,13 29,7 47,17 56,24 15,12 20,25 20,42 0,19 -7,36 -25,54 -17,14 -41,22 -73,22 -32,0 -54,-5 -71,-18 -15,-17 -27,-31 -34,-53l0 0zm-203 -154l58 0 15 107 5 59c7,-22 17,-47 32,-69l51 -95 61 0 -132 237c-10,20 -19,32 -27,42 -5,7 -14,15 -22,17 -9,5 -19,7 -31,7 -13,0 -27,-2 -42,-7l5 -44c7,2 14,2 19,2 18,0 32,-14 44,-39l-36 -217zm-110 115c-3,0 -8,0 -15,2 -29,2 -49,10 -56,15 -8,5 -10,12 -10,19 0,8 2,12 7,17 5,5 10,8 20,8 10,0 17,-3 24,-8 8,-5 15,-9 17,-14 3,-8 8,-17 10,-32l3 -7zm-57 -54l-56 -5c7,-20 17,-34 34,-44 15,-12 37,-15 64,-15 27,0 46,5 61,17 15,12 20,25 20,42l0 19c0,8 -5,27 -13,59l-7 54c0,10 0,20 5,32l-56 0c-3,-8 -3,-15 -5,-25 -10,10 -17,17 -30,22 -12,5 -22,8 -31,8 -17,0 -32,-5 -44,-17 -13,-13 -18,-27 -18,-47 0,-17 5,-34 18,-49 14,-12 34,-19 68,-22l54 -7c2,-8 2,-15 2,-20 0,-7 -2,-12 -7,-15 -5,-2 -12,-7 -22,-7 -10,0 -20,3 -24,7 -5,-2 -10,5 -13,13l0 0zm-178 154l-54 0 -12 -137 -64 137 -54 0 -27 -215 52 0 14 144 66 -144 52 0 7 144 66 -144 59 0 -105 215zm-338 0l64 -296 56 0 -61 296 -59 0zm-93 -100c-2,0 -10,0 -15,2 -29,2 -46,10 -56,15 -5,5 -10,12 -10,19 0,8 3,12 8,17 5,5 9,8 19,8 10,0 17,-3 25,-8 7,-5 14,-9 17,-14 2,-8 7,-17 10,-32l2 -7zm-54 -54l-56 -5c7,-20 17,-34 34,-44 15,-12 37,-15 64,-15 27,0 46,5 61,17 15,12 20,25 20,42l0 19c0,8 -5,27 -13,59l-7 54c0,10 0,20 5,32l-56 0c-3,-8 -3,-15 -5,-25 -8,10 -17,17 -30,22 -12,5 -22,8 -31,8 -18,0 -32,-5 -44,-17 -13,-13 -18,-27 -18,-47 0,-20 5,-37 20,-49 12,-12 34,-19 69,-22l56 -7c2,-8 5,-15 5,-20 0,-7 -3,-12 -8,-15 -5,-2 -12,-7 -22,-7 -9,0 -17,3 -24,7 -15,-2 -20,5 -20,13l0 0zm-298 98l59 0 -10 46c-5,27 -15,47 -27,56 -12,13 -27,17 -47,17l5 -26c8,-3 17,-5 22,-13 5,-5 10,-14 12,-27l-26 0 12 -53zm-220 -159l58 0 -27 127 -5 29c0,5 3,12 8,15 5,5 10,7 17,7 5,0 10,0 15,-2 5,-3 9,-5 14,-10 5,-3 10,-10 15,-15 2,-5 7,-12 12,-19 3,-5 5,-15 8,-32l19 -103 59 0 -44 215 -54 0 5 -29c-25,22 -49,34 -78,34 -18,0 -32,-5 -42,-14 -10,-10 -15,-25 -15,-42 0,-7 3,-22 8,-44l27 -117zm-125 85c0,-14 -5,-24 -12,-32 -8,-7 -18,-12 -32,-12 -15,0 -25,5 -34,12 -10,8 -18,20 -23,35 -4,14 -7,29 -7,41 0,15 5,27 12,37 8,10 20,15 32,15 15,0 30,-8 42,-20 14,-27 22,-49 22,-76l0 0zm-164 39c0,-39 12,-71 34,-95 22,-25 52,-34 88,-34 32,0 56,9 74,27 17,17 27,41 27,71 0,34 -13,63 -35,90 -22,27 -51,39 -88,39 -19,0 -37,-5 -54,-12 -14,-7 -27,-20 -34,-34 -7,-17 -12,-35 -12,-52l0 0zm-220 -124l58 0 15 107 5 59c7,-22 17,-47 32,-69l49 -95 63 0 -132 237 -27 42c-7,7 -14,15 -22,17 -10,5 -19,7 -32,7 -12,0 -26,-2 -41,-7l5 -44c7,2 14,2 22,2 17,0 32,-14 44,-39l-39 -217zm-326 215l-58 0 61 -296 58 0 -22 105c15,-10 25,-17 37,-22 12,-5 25,-7 37,-7 17,0 32,5 41,14 10,10 15,22 15,39 0,10 0,22 -5,40l-24 127 -61 0 26 -127c3,-15 3,-22 3,-27 0,-8 -3,-13 -7,-17 -5,-5 -10,-8 -18,-8 -9,0 -17,5 -26,12 -13,10 -20,20 -27,32l-15 49 -15 86zm-181 -174l10 -44 29 0 8 -34 66 -42 -15 76 37 0 -10 44 -37 0 -17 91 -5 29c0,2 0,7 3,10 2,2 7,2 14,2l20 0 -10 44c-10,3 -19,3 -32,3 -19,0 -34,-5 -46,-12 -10,-8 -15,-20 -15,-32 0,-8 3,-22 8,-47l17 -85 -25 -3zm-85 -41l58 0 -44 215 -58 0 44 -215zm17 -81l58 0 -9 51 -59 0 10 -51zm-167 296l-61 0 -7 -218 -108 218 -63 0 -13 -296 61 0 3 208 100 -208 66 0 8 205 98 -205 58 0 -142 296z"/>
     </g>
     <g>
      <path class="fil2" d="M4746 476c24,0 46,4 68,14 22,10 42,22 59,39 14,17 29,35 37,57 9,22 12,44 12,66 0,24 -5,46 -15,68 -10,22 -22,39 -39,56 -17,18 -37,30 -59,40 -22,9 -44,14 -66,14 -24,0 -46,-5 -68,-14 -22,-10 -42,-22 -59,-40 -17,-17 -29,-36 -39,-56 -10,-22 -15,-44 -15,-66 0,-24 5,-46 15,-68 10,-22 22,-42 39,-59 17,-17 34,-29 56,-37 30,-10 54,-14 74,-14l0 0zm0 26c-20,0 -40,3 -57,13 -17,7 -34,17 -46,31 -15,15 -27,32 -34,49 -8,18 -13,37 -13,59 0,22 3,39 13,56 7,18 17,35 31,49 15,15 32,27 49,32 17,7 37,12 57,12 19,0 39,-2 58,-12 17,-7 35,-17 49,-32 15,-14 25,-29 32,-46 7,-17 12,-37 12,-56 0,-22 -2,-42 -12,-59 -7,-17 -17,-34 -32,-49 -14,-15 -32,-27 -49,-32 -14,-12 -34,-15 -58,-15l0 0zm-69 47l76 0c27,0 49,5 64,15 14,9 22,22 22,39 0,14 -3,27 -13,36 -7,10 -17,15 -31,20l44 91 -47 0 -39 -84 -32 0 0 84 -41 0 -3 -201zm42 29l0 64 29 0c15,0 27,-3 34,-7 8,-5 13,-13 13,-22 0,-13 -3,-20 -13,-25 -7,-5 -19,-7 -36,-7l-27 -3z"/>
     </g>
    </g>
   </g>
   <g>
    <path class="fil4" d="M9709 5774l-2757 0c-278,0 -503,-232 -503,-517l0 -3358c0,-285 225,-518 503,-518l2757 0 0 29 -2757 0c-262,0 -475,219 -475,489l0 3358c0,270 213,489 475,489l2757 0 0 28z"/>
    <path class="fil4" d="M19334 5769l-2758 0 0 -29 2758 0c261,0 474,-219 474,-489l0 -3358c0,-270 -213,-489 -474,-489l-2758 0 0 -29 2758 0c277,0 503,233 503,518l0 3358c0,285 -226,518 -503,518z"/>
    <path class="fil4" d="M10247 1571c0,79 -44,118 -134,118 -89,0 -134,-39 -134,-118l0 -370c0,-78 45,-118 134,-118 90,0 134,40 134,118l0 72 -79 0 0 -72c0,-33 -18,-50 -54,-51l-1 0c-36,0 -54,17 -54,51l0 370c0,33 18,50 54,50 37,0 55,-17 55,-50l0 -72 79 0 0 72z"/>
    <path class="fil4" d="M11002 1201c0,-33 -18,-50 -55,-51l0 0c-36,0 -55,17 -55,51l0 370c0,33 19,50 55,50 37,0 55,-17 55,-50l0 -370zm79 370c0,79 -44,118 -134,118 -89,0 -134,-39 -134,-118l0 -370c0,-78 45,-118 134,-118 90,0 134,40 134,118l0 370z"/>
    <path class="fil4" d="M11736 1161l0 451 55 0c37,0 55,-17 55,-51l0 -350c0,-34 -18,-50 -55,-50l-55 0zm-80 -68l146 0c82,0 123,39 123,118l0 350c0,79 -43,118 -131,118l-138 0 0 -586z"/>
    <polygon class="fil4" points="12718,1352 12718,1420 12580,1420 12580,1612 12741,1612 12741,1679 12501,1679 12501,1093 12741,1093 12741,1161 12580,1161 12580,1352 "/>
    <polygon class="fil4" points="13306,1093 13387,1093 13502,1514 13502,1094 13574,1093 13574,1679 13493,1679 13382,1268 13382,1679 13306,1679 "/>
    <path class="fil4" d="M14337 1483l-51 -331 -50 331 101 0zm79 -8l32 204 -81 0 -20 -128 -121 0 -20 128 -80 0 30 -203 70 -383 120 0 70 382z"/>
    <polygon class="fil4" points="15208,1537 15334,1093 15415,1093 15415,1679 15340,1679 15340,1264 15235,1679 15183,1679 15075,1266 15075,1679 14999,1679 14999,1093 15081,1093 "/>
    <polygon class="fil4" points="16215,1352 16215,1420 16077,1420 16077,1612 16237,1612 16237,1679 15997,1679 15997,1093 16237,1093 16237,1161 16077,1161 16077,1352 "/>
    <path class="fil4" d="M10094 5903c20,0 36,-7 50,-18 13,-12 19,-29 19,-52 0,-14 -2,-26 -6,-34 -5,-9 -11,-16 -18,-20 -7,-5 -15,-8 -24,-9 -10,-1 -19,-2 -29,-2l-37 0 0 131c4,1 11,2 19,2 10,1 18,2 26,2zm-24 -200c5,0 11,0 18,-1 7,0 13,-1 17,-2 14,-5 25,-13 35,-24 10,-11 15,-25 15,-43 0,-11 -2,-20 -5,-28 -3,-8 -8,-14 -13,-19 -7,-5 -13,-8 -21,-10 -8,-2 -17,-3 -25,-3 -20,0 -34,1 -42,3l0 127 21 0zm175 -89c0,12 -1,23 -4,34 -2,11 -6,22 -12,32 -6,10 -14,18 -23,26 -9,7 -20,13 -33,17l0 3c12,3 22,7 32,12 11,6 19,13 27,22 8,9 14,20 18,33 5,12 7,28 7,45 0,24 -4,44 -13,62 -9,17 -21,31 -36,42 -14,11 -33,19 -52,24 -20,5 -42,8 -64,8l-26 0c-10,0 -22,0 -34,-1 -12,-1 -24,-2 -37,-3 -13,-1 -25,-3 -36,-6l0 -453c16,-2 35,-4 58,-6 24,-2 47,-3 69,-3 21,0 42,1 61,4 19,3 36,9 51,17 14,9 26,20 34,35 9,14 13,34 13,56z"/>
    <polygon class="fil4" points="10695,5797 10561,5508 10668,5508 10737,5682 10744,5732 10748,5732 10756,5681 10824,5508 10921,5508 10785,5796 10785,5968 10695,5968 "/>
    <path class="fil4" d="M11639 5687l28 0c27,0 47,-4 57,-11 11,-7 16,-20 16,-37 0,-10 -2,-19 -8,-26 -5,-8 -12,-13 -21,-16 -8,-3 -25,-5 -48,-5l-24 0 0 95zm-88 -180l93 0c51,0 87,4 109,13 22,9 39,24 52,45 13,22 20,46 20,76 0,30 -8,55 -22,76 -15,20 -37,35 -65,45l109 206 -96 0 -104 -196 -8 0 0 196 -88 0 0 -461z"/>
    <path class="fil4" d="M12348 5507l89 0 0 298c0,25 2,44 6,54 5,11 13,20 23,26 10,6 22,9 37,9 15,0 29,-3 40,-10 11,-7 19,-17 23,-28 4,-10 6,-31 6,-62l0 -287 89 0 0 274c0,47 -3,79 -8,97 -6,18 -16,35 -30,52 -15,17 -32,29 -51,37 -19,8 -41,13 -67,13 -34,0 -63,-8 -88,-24 -24,-15 -42,-34 -52,-57 -11,-24 -17,-63 -17,-118l0 -274z"/>
    <polygon class="fil4" points="13162,5507 13247,5507 13444,5810 13444,5507 13532,5507 13532,5968 13447,5968 13250,5665 13250,5968 13162,5968 "/>
    <polygon class="fil4" points="14034,5507 14120,5507 14187,5801 14269,5507 14342,5507 14426,5801 14491,5507 14578,5507 14474,5968 14390,5968 14305,5669 14221,5968 14138,5968 "/>
    <path class="fil4" d="M15302 5629l-61 158 123 0 -62 -158zm-45 -122l90 0 177 461 -91 0 -37 -95 -188 0 -37 95 -91 0 177 -461z"/>
    <polygon class="fil4" points="16025,5507 16114,5507 16114,5884 16241,5884 16241,5968 16025,5968 "/>
    <path class="fil4" d="M11564 3299l-7 0c-25,-1 -46,-5 -61,-10 -15,-6 -28,-15 -40,-27 -13,-13 -22,-31 -27,-51 -5,-22 -7,-56 -7,-101l0 -567 623 784 2 2 42 0 0 -718c0,-45 2,-78 7,-100 5,-21 14,-38 27,-52 24,-24 57,-36 100,-36l8 0 0 -31 -327 0 0 30 7 1c25,1 45,4 61,10 14,5 28,14 40,27 13,13 22,30 26,51 5,21 8,55 8,101l0 466 -535 -683 -3 -3 -271 0 0 30 7 1c25,1 46,4 61,10 15,5 28,14 40,27 13,13 22,30 26,51 5,22 8,55 8,100l0 499c0,45 -3,79 -8,100 -4,21 -13,39 -26,52 -12,12 -26,21 -40,27 -16,5 -36,9 -61,10l-7 0 0 30 327 0 0 -30z"/>
    <path class="fil4" d="M13251 3046l-29 -2 -2 7c-8,40 -17,72 -27,96 -10,24 -23,46 -39,65 -22,27 -51,48 -86,61 -35,14 -80,20 -133,20 -50,0 -90,-7 -121,-21 -29,-15 -51,-37 -66,-68 -9,-18 -14,-41 -17,-68 -4,-28 -5,-73 -5,-134l0 -148 31 0c32,0 59,4 80,10 20,7 37,17 49,30 14,14 24,31 32,52 7,20 13,48 17,81l1 7 30 0 3 -377 -30 -1 -1 7c-4,34 -9,60 -15,77 -6,17 -14,31 -26,44 -12,12 -28,22 -47,27 -20,5 -51,7 -91,7l-33 0 0 -390 147 0c47,0 85,3 113,10 28,6 52,17 73,32 24,18 43,39 56,63 13,24 23,55 28,91l1 7 30 -1 -12 -238 -741 0 0 30 7 1c25,1 46,4 61,10 15,5 28,14 39,27 13,13 22,30 27,51 5,22 8,56 8,101l0 498c0,45 -3,79 -8,100 -5,21 -14,39 -27,52 -11,12 -25,21 -40,27 -15,5 -35,9 -60,10l-7 0 0 30 821 0 9 -283z"/>
    <path class="fil4" d="M14881 2392l-328 0 0 31 7 0c32,0 55,4 70,13 24,16 36,41 36,79 0,37 -14,91 -42,159l-178 437 -160 -516c-13,-39 -19,-67 -19,-82 0,-16 4,-31 12,-45 7,-14 17,-25 30,-32 9,-6 19,-9 30,-11 12,-2 31,-2 57,-2l8 0 0 -31 -450 0 0 31 8 0c22,0 41,2 55,7 14,4 26,12 37,23 12,11 21,26 28,45 7,19 11,38 11,58 0,27 -10,69 -28,124l-141 424 -202 -495 -18 -42c-14,-32 -21,-58 -21,-76 0,-13 4,-26 11,-37 6,-11 15,-18 26,-23 13,-6 40,-8 78,-8l8 0 0 -31 -441 0 0 30 7 1c23,1 40,4 53,7 11,3 22,8 32,14 13,8 24,19 33,33 9,15 20,39 34,71l323 777 1 4 41 0 239 -703 233 698 2 5 38 0 280 -677c33,-82 61,-139 84,-170 14,-21 29,-35 43,-43 15,-8 37,-13 66,-16l7 -1 0 -30z"/>
    <path class="fil4" d="M7350 4141c-12,25 -29,47 -51,63 -11,8 -24,14 -38,19 -14,5 -33,9 -56,13 -27,3 -54,5 -79,5l-47 0 0 -386 55 0c47,0 83,2 106,7 23,6 43,15 60,29 20,17 37,40 49,69 12,30 19,62 19,95 0,31 -6,60 -18,86zm-271 136l113 0c84,0 147,16 186,48 21,17 38,42 50,75 13,32 19,68 19,106 0,66 -20,119 -60,157 -41,38 -97,57 -167,57 -53,0 -91,-14 -112,-42 -11,-14 -18,-31 -22,-50 -5,-20 -7,-47 -7,-80l0 -271zm453 21l0 0c-20,-16 -43,-28 -67,-37 -19,-7 -44,-13 -75,-19 20,-8 36,-15 48,-22 17,-9 33,-22 46,-36 38,-39 57,-90 57,-150 0,-38 -8,-72 -25,-103 -17,-30 -40,-55 -71,-74 -34,-20 -78,-33 -131,-37 -14,-1 -44,-1 -89,-1l-451 0 0 30 7 0c25,2 45,5 61,11 15,5 28,14 39,26 14,13 23,31 27,51 5,22 8,56 8,101l0 498c0,46 -3,80 -8,101 -4,21 -13,38 -27,52 -11,11 -24,20 -39,26 -15,5 -36,9 -61,10l-7 1 0 30 501 0c67,0 120,-4 157,-11 37,-7 70,-21 98,-40 30,-21 54,-50 71,-85 16,-35 25,-73 25,-115 0,-42 -8,-81 -25,-117 -16,-36 -39,-66 -69,-90z"/>
    <path class="fil4" d="M8643 4477c-9,40 -18,73 -28,97 -10,24 -22,46 -38,64 -22,28 -51,49 -86,62 -36,13 -80,20 -133,20 -50,0 -91,-7 -121,-22 -30,-14 -52,-37 -66,-68 -9,-18 -15,-41 -18,-68 -3,-28 -5,-73 -5,-134l0 -147 31 0c33,0 60,3 80,10 21,6 37,16 50,30 13,14 24,31 31,51 8,21 14,48 18,82l0 7 30 0 3 -377 -30 -2 -1 7c-4,34 -9,60 -15,78 -5,16 -14,31 -26,43 -12,13 -28,22 -47,27 -20,5 -51,8 -91,8l-33 0 0 -390 147 0c47,0 86,3 114,9 27,6 52,17 72,32 24,18 44,40 57,63 13,24 22,55 28,92l1 7 30 -2 -13 -237 -741 0 0 30 7 0c26,1 46,5 61,10 15,6 28,15 40,27 13,13 22,31 27,52 5,21 7,55 7,100l0 498c0,45 -2,79 -7,101 -5,21 -14,38 -27,51 -12,13 -25,22 -40,27 -15,6 -36,9 -61,10l-7 1 0 30 821 0 10 -284 -30 -1 -1 6z"/>
    <path class="fil4" d="M9411 4425l8 0c53,0 91,9 114,28 22,18 33,49 33,91 0,46 -13,87 -38,120 -18,24 -43,44 -72,57 -29,14 -60,21 -93,21 -84,0 -156,-40 -215,-118 -30,-41 -54,-89 -70,-143 -16,-54 -24,-112 -24,-172 0,-128 34,-242 100,-341 33,-48 68,-83 106,-104 37,-21 82,-32 134,-32 67,0 124,24 171,71 48,48 87,122 118,221l2 5 28 -2 -8 -309 -30 0 -2 6c-8,25 -20,38 -34,38 -7,0 -15,-1 -24,-5l-40 -18c-35,-16 -69,-27 -100,-34 -31,-7 -65,-10 -102,-10 -63,0 -123,10 -179,30 -57,20 -107,49 -151,86 -53,46 -94,104 -123,174 -30,70 -44,147 -44,228 0,59 8,116 24,169 16,53 40,99 70,137 40,52 93,91 158,119 64,27 138,41 217,41 59,0 115,-7 167,-22 52,-14 99,-36 138,-63 14,-9 26,-14 34,-14 7,0 19,3 35,9l11 4 -2 -27c-2,-34 -3,-60 -3,-76 0,-57 5,-96 13,-115 7,-16 17,-28 31,-34 15,-7 43,-13 81,-16l7 -1 0 -30 -446 0 0 31z"/>
    <path class="fil4" d="M10022 3849l7 0c25,1 46,5 61,11 15,5 29,14 40,26 13,13 22,31 27,51 5,22 7,56 7,101l0 498c0,46 -2,80 -7,101 -5,21 -14,38 -27,52 -11,11 -25,20 -40,26 -15,5 -35,9 -60,10l-8 1 0 30 447 0 0 -30 -7 -1c-29,-1 -53,-6 -71,-15 -17,-8 -31,-20 -42,-37 -7,-12 -13,-29 -16,-49 -4,-22 -6,-51 -6,-88l0 -498c0,-30 2,-58 4,-81 4,-30 14,-54 31,-71 11,-12 25,-21 40,-26 15,-6 35,-10 60,-11l7 0 0 -30 -447 0 0 30z"/>
    <path class="fil4" d="M11326 3849l7 0c25,1 45,5 60,11 15,5 29,14 40,26 13,13 22,31 27,51 5,22 8,56 8,101l0 466 -536 -683 -2 -2 -271 0 0 30 7 0c25,1 46,5 61,11 15,5 28,14 39,26 13,13 22,31 27,52 5,21 8,55 8,100l0 498c0,45 -3,79 -8,101 -5,21 -14,38 -27,52 -11,12 -25,21 -40,26 -15,6 -35,9 -60,10l-7 1 0 30 326 0 0 -30 -7 -1c-25,-1 -45,-4 -60,-10 -15,-5 -28,-14 -40,-27 -13,-13 -22,-30 -27,-51 -5,-21 -7,-55 -7,-101l0 -566 623 783 2 3 42 0 0 -718c0,-45 2,-79 7,-100 5,-21 14,-39 27,-52 24,-24 57,-37 100,-37l7 0 0 -30 -326 0 0 30z"/>
    <path class="fil4" d="M12510 3849l7 0c25,1 45,5 60,11 15,5 28,14 40,26 13,13 22,31 27,51 5,22 8,56 8,101l0 466 -536 -683 -2 -2 -271 0 0 30 7 0c25,1 46,5 61,11 15,5 28,14 39,26 13,13 22,31 27,52 5,21 8,55 8,100l0 498c0,45 -3,79 -8,101 -5,21 -14,38 -27,52 -12,12 -25,21 -40,26 -15,6 -35,9 -60,10l-7 1 0 30 326 0 0 -30 -7 -1c-25,-1 -45,-4 -60,-10 -15,-5 -29,-14 -40,-27 -13,-13 -22,-30 -27,-51 -5,-21 -8,-55 -8,-101l0 -566 623 783 3 3 41 0 0 -718c0,-45 3,-79 8,-100 5,-21 14,-39 27,-52 23,-24 57,-37 100,-37l7 0 0 -30 -326 0 0 30z"/>
    <path class="fil4" d="M13026 3849l8 0c24,1 45,5 60,11 15,5 29,14 40,26 13,13 22,31 27,51 5,22 7,56 7,101l0 498c0,46 -2,80 -7,101 -5,21 -14,38 -27,52 -11,11 -25,20 -40,26 -15,5 -35,9 -60,10l-8 1 0 30 447 0 0 -30 -7 -1c-29,-1 -53,-6 -71,-15 -17,-8 -31,-20 -42,-37 -7,-12 -13,-29 -16,-49 -4,-22 -6,-51 -6,-88l0 -498c0,-30 2,-58 4,-81 4,-30 14,-54 31,-71 12,-12 25,-21 40,-26 15,-6 35,-10 60,-11l7 0 0 -30 -447 0 0 30z"/>
    <path class="fil4" d="M14330 3849l7 0c25,1 45,5 60,11 15,5 29,14 40,26 13,13 22,31 27,51 5,22 8,56 8,101l0 466 -535 -683 -3 -2 -271 0 0 30 7 0c25,1 46,5 61,11 15,5 28,14 39,26 13,13 22,31 27,52 5,21 8,55 8,100l0 498c0,45 -3,79 -8,101 -5,21 -14,38 -27,52 -11,12 -25,21 -40,26 -15,6 -35,9 -60,10l-7 1 0 30 326 0 0 -30 -7 -1c-25,-1 -45,-4 -60,-10 -15,-5 -28,-14 -40,-27 -13,-13 -22,-30 -27,-51 -5,-21 -7,-55 -7,-101l0 -566 623 783 2 3 42 0 0 -718c0,-45 2,-79 7,-100 5,-21 14,-39 27,-52 24,-24 57,-37 100,-37l7 0 0 -30 -326 0 0 30z"/>
    <path class="fil4" d="M15414 4425l7 0c54,0 92,9 115,28 22,18 33,49 33,91 0,46 -13,87 -38,120 -19,24 -43,44 -72,57 -29,14 -60,21 -93,21 -84,0 -157,-40 -215,-118 -31,-41 -54,-89 -70,-143 -16,-54 -24,-112 -24,-172 0,-128 34,-242 100,-341 33,-48 68,-83 105,-104 38,-21 83,-32 135,-32 66,0 124,24 171,71 47,48 87,122 118,221l1 5 29 -2 -8 -309 -31 0 -2 6c-8,25 -19,38 -34,38 -7,0 -15,-1 -23,-5l-40 -18c-36,-16 -69,-27 -100,-34 -31,-7 -66,-10 -102,-10 -63,0 -123,10 -180,30 -56,20 -107,49 -150,86 -53,46 -95,104 -124,174 -29,70 -44,147 -44,228 0,59 9,116 25,169 16,53 39,99 70,137 40,52 93,91 158,119 64,27 137,41 217,41 58,0 114,-7 166,-22 53,-14 99,-36 139,-63 14,-9 25,-14 34,-14 7,0 19,3 35,9l11 4 -2 -27c-2,-34 -3,-60 -3,-76 0,-57 4,-96 12,-115 7,-16 18,-28 32,-34 15,-7 42,-13 81,-16l7 -1 0 -30 -446 0 0 31z"/>
    <path class="fil4" d="M16447 4203l-95 -46c-94,-45 -141,-104 -141,-175 0,-18 3,-37 10,-55 7,-18 16,-33 27,-47 28,-32 66,-48 114,-48 33,0 63,8 88,24 25,16 49,41 70,75 12,19 22,40 31,62 9,23 19,56 31,98l2 5 29 0 -5 -283 -29 0 -2 6c-6,29 -20,29 -24,29 -6,0 -12,-2 -20,-4 -7,-2 -23,-8 -45,-17 -30,-12 -55,-21 -73,-26 -19,-4 -39,-6 -61,-6 -67,0 -126,23 -174,68 -28,25 -50,56 -65,92 -16,35 -24,73 -24,111 0,62 21,116 60,160 15,16 34,31 57,46 23,15 56,34 99,55 48,25 84,45 108,61 22,16 40,33 53,49 12,17 22,37 29,60 7,23 11,46 11,68 0,51 -17,93 -49,126 -32,33 -73,50 -123,50 -71,0 -131,-37 -179,-110 -25,-40 -48,-96 -66,-166l-2 -5 -29 -1 -2 294 29 0 1 -5c7,-18 19,-27 38,-27 6,0 11,1 16,2 5,2 21,9 49,21 54,23 112,35 171,35 64,0 121,-15 169,-44 48,-29 85,-71 109,-125 17,-39 25,-79 25,-122 0,-63 -19,-120 -57,-168 -33,-43 -87,-82 -161,-117z"/>
    <path class="fil4" d="M17820 4391c33,-34 61,-68 84,-102 48,-72 73,-143 73,-212 0,-34 -6,-69 -18,-101 -13,-32 -30,-61 -53,-85 -25,-27 -56,-48 -93,-63 -37,-14 -78,-22 -121,-22 -79,0 -146,24 -199,70 -51,45 -77,104 -77,175 0,30 5,58 16,84 10,26 25,48 44,66 32,30 68,45 108,45 25,0 55,-9 89,-27l6 -3 -8 -23 -6 1c-7,0 -12,0 -15,0 -18,0 -35,-4 -53,-12 -18,-8 -34,-19 -49,-34 -33,-32 -50,-74 -50,-124 0,-31 6,-60 17,-85 11,-26 27,-47 48,-64 30,-25 65,-37 105,-37 45,0 85,17 118,53 40,43 60,96 60,158 0,47 -12,97 -36,151 -24,54 -65,120 -120,195 -39,53 -87,111 -142,171 -55,60 -111,115 -166,163l-2 3 0 24 538 0 57 -238 -29 -5 -2 6c-10,33 -24,59 -40,76 -14,16 -32,27 -54,33 -16,4 -45,7 -85,7l-224 0c32,-29 80,-70 144,-122 57,-48 103,-90 135,-122z"/>
    <path class="fil4" d="M18326 4589c-25,0 -46,9 -63,26 -18,18 -27,39 -27,64 0,24 9,46 27,63 17,17 38,26 63,26 24,0 45,-9 63,-26 17,-17 26,-39 26,-63 0,-25 -9,-46 -26,-64 -18,-17 -39,-26 -63,-26z"/>
    <path class="fil4" d="M19022 4717c-35,27 -67,24 -96,1 -17,-13 -32,-31 -45,-56 -10,-17 -21,-42 -31,-72 -10,-31 -18,-62 -25,-93 -14,-70 -22,-141 -22,-210 0,-69 8,-140 22,-210 7,-30 15,-61 25,-92 10,-31 21,-56 31,-74 13,-23 28,-41 44,-54 16,-13 32,-19 48,-19 17,0 33,6 49,19 17,13 32,31 45,54 9,18 19,43 30,74 10,31 19,62 25,92 14,70 22,141 22,210 0,69 -8,140 -22,210l0 0c-6,31 -15,62 -25,93 -11,30 -21,55 -30,72 -13,24 -28,42 -45,55zm202 -658l0 -1c-14,-34 -31,-69 -51,-103 -20,-33 -41,-61 -62,-82 -42,-44 -88,-67 -138,-67 -49,0 -95,23 -138,67 -20,21 -40,49 -61,82 -20,34 -37,68 -51,103 -31,80 -47,157 -47,229 0,71 16,148 47,229 14,36 31,70 51,103 21,34 41,61 61,82 44,45 90,67 138,67 49,0 96,-22 138,-67 21,-21 41,-48 62,-82 20,-33 37,-68 51,-103 31,-80 46,-157 46,-229 0,-72 -15,-149 -46,-228z"/>
   </g>
  </g>
 </g>
</svg>
