<?xml version="1.0" encoding="UTF-8"?>
<!DOCTYPE svg PUBLIC "-//W3C//DTD SVG 1.0//EN" "http://www.w3.org/TR/2001/REC-SVG-20010904/DTD/svg10.dtd">
<!-- Creator: CorelDRAW 2020 (64-Bit) -->
<svg xmlns="http://www.w3.org/2000/svg" xml:space="preserve" width="1.5853in" height="1.63893in" version="1.0" style="shape-rendering:geometricPrecision; text-rendering:geometricPrecision; image-rendering:optimizeQuality; fill-rule:evenodd; clip-rule:evenodd"
viewBox="0 0 1584.89 1638.5"
 xmlns:xlink="http://www.w3.org/1999/xlink"
 xmlns:xodm="http://www.corel.com/coreldraw/odm/2003">
 <defs>
  <style type="text/css">
   <![CDATA[
    .fil0 {fill:black}
    .fil3 {fill:#23A2C4}
    .fil1 {fill:#44BFEC}
    .fil7 {fill:#4B5072}
    .fil4 {fill:#CACACA}
    .fil2 {fill:#E4E4E4}
    .fil6 {fill:#FEBC48}
    .fil5 {fill:#FFD945}
   ]]>
  </style>
 </defs>
 <g id="Layer_x0020_1">
  <metadata id="CorelCorpID_0Corel-Layer"/>
  <g id="_2741663217232">
   <path class="fil0" d="M179.55 96.19l0 278.96c-58.85,0 -105.16,-8.05 -146.61,29.74 -43.83,39.97 -44.74,121.73 2.22,159.53 20.77,16.72 39.22,28.76 77.05,28.76 0,128.46 -7.11,218.36 69.13,318.85 28.97,38.18 76.63,79.49 121.06,100.18 17.7,8.24 37.58,12.61 53.5,20.25 0,49.57 -8.58,100.79 31.94,131.59 10.13,7.7 20.73,15.7 35.4,19.11 0,155.74 -10.03,220.71 55.75,319.4 49,73.51 146.71,135.92 239.24,135.92 89.41,0 141.87,-15.3 206.16,-63.18 125.9,-93.76 124.1,-215.62 124.1,-356.87l-0.01 -721.46c-0.91,-245.38 318.92,-346.3 453.56,-123.28 67.53,111.85 -4.54,280.4 56.28,280.4 15.51,0 25.65,-10.14 25.65,-25.65 0,-111.2 14.03,-235.16 -68.14,-323.05 -29.98,-32.07 -57.2,-60.63 -103.13,-79.64 -216.69,-89.74 -415.99,67.28 -415.52,274.43 0.21,93.2 3.69,810.29 -1.78,847.94 -10.15,69.95 -25.21,113.76 -75.96,164.52 -128.28,128.28 -348.56,86.67 -422.47,-79.37 -31.35,-70.43 -22.44,-165.8 -22.44,-243.69 0,-10.75 20.03,-12.5 31.36,-23.15 44.11,-41.47 35.97,-63.07 35.97,-133.97 31.87,-15.29 32.5,-6.91 91.66,-43.01 81.33,-49.63 148.83,-164.83 148.83,-258.39l0 -137.88c65.29,0 115.43,-46.31 115.43,-112.23 0,-54.75 -51.06,-105.81 -105.81,-105.81l-76.96 0 0 -294.99c0,-25.34 -8.94,-38.03 -20.46,-53.29 -10.75,-14.25 -29.74,-23.58 -50.69,-26.87l-33.74 0c-18.9,3.01 -36.74,11.27 -49.09,25.59 -9.1,10.56 -22.38,31.79 -22.38,51.36l0 298.2 -179.56 0 0 -294.99c0,-19.77 -11.05,-41.46 -21.54,-52.2 -20.7,-21.2 -30.7,-26.73 -47.04,-27.96l-37.23 0c-23.12,0 -42.67,16.01 -53.26,30.11 -12.82,17.06 -20.49,37.66 -20.49,66.09z"/>
   <path class="fil1" d="M403.08 991.8c91.26,10.56 159.93,-8.35 228.21,-62.33 36.01,-28.47 69.85,-77.15 87.3,-127.52 17.91,-51.71 15.32,-97.83 15.41,-155.19 -21.88,-6.57 -322.25,-2.61 -387.71,-2.61 -45.19,0 -77.47,-5.66 -104.04,24.51 -39.46,44.82 4.77,158.25 28.2,199.14 48.99,85.51 119.28,110.18 132.63,123.99z"/>
   <path class="fil2" d="M227.28 543.34c25.61,0.18 36.44,0.41 41.25,24.07l49.39 0.55c5.8,-31.81 28.95,-24.57 63.64,-24.55l269.34 0c37.87,0 146.06,7.2 170.96,-10.18 48.35,-33.74 22.88,-106.63 -25.23,-105.43 -24.79,7 -564.97,0.05 -569.47,1.73 -13.17,11.9 -22.22,33.19 -21.51,57.71 0.87,30.14 13.9,38.01 21.64,56.1z"/>
   <path class="fil3" d="M403.08 991.8c-13.35,-13.82 -83.64,-38.48 -132.63,-123.99 -23.43,-40.89 -67.66,-154.32 -28.2,-199.14 26.57,-30.18 58.85,-24.51 104.04,-24.51 65.46,0 365.83,-3.96 387.71,2.61l-0.03 -54.19c-91.28,-4.03 -230.01,-0.38 -329.97,-0.38 -51.51,0 -80.41,8.57 -86.08,-24.24l-49.39 -0.55c-7.27,34.86 -35.66,24.79 -105.6,24.79 0,115.97 -9.8,183.98 46.15,272.85 35.85,56.96 103.43,111.34 194,126.75z"/>
   <path class="fil0" d="M1532.68 731.07l0 606.02c0,52.32 51.3,36.74 51.3,12.83l0 -622.05c0,-35.35 -51.3,-34.38 -51.3,3.21z"/>
   <path class="fil4" d="M227.28 543.34c-7.74,-18.09 -20.77,-25.96 -21.64,-56.1 -0.71,-24.51 8.34,-45.81 21.51,-57.71 4.5,-1.68 544.68,5.27 569.47,-1.73 -12.48,-9.33 -464,-3.18 -520.88,-3.19 -43.83,0 -87.64,0.23 -131.47,0.2 -45.29,-0.02 -77.38,0.39 -91.4,38.58 -13.74,37.45 11.93,72.76 43.6,78.52 27.86,5.07 98.92,1.75 130.8,1.42z"/>
   <path class="fil5" d="M257.49 375.92l52.25 -0.42 0.03 -269.76c0.11,-28.93 -3.79,-56.81 -31.24,-56.5l-10.08 2.06c-19.12,27.71 -10.95,116.81 -10.95,157.12 0,55.83 0,111.66 0,167.5z"/>
   <path class="fil5" d="M614.53 375.98l52.32 -0.07 0.03 -266.91c0.13,-29.53 -2.42,-57.61 -30.35,-59.45 -23.99,6.4 -22.13,18.79 -22.01,65.88l0.01 260.55z"/>
   <path class="fil6" d="M614.53 375.98l-0.01 -260.55c-0.12,-47.09 -1.98,-59.48 22.01,-65.88 -17.66,-15.77 -47.44,11.15 -49.16,36.98 -3.1,46.65 -0.1,233.07 -0.1,288.79l27.26 0.65z"/>
   <path class="fil6" d="M257.49 375.92c0,-55.84 0,-111.67 0,-167.5 0,-40.31 -8.17,-129.42 10.95,-157.12l10.08 -2.06c-9.83,-6.88 -22.65,-2.31 -32.05,4.76 -26.49,19.93 -16.32,78.67 -16.32,128.77 0,64.4 0,128.8 0,193.19l27.34 -0.04z"/>
   <path class="fil7" d="M492.43 1043.2l-88 -0.33c0,42.81 -5.01,94.28 44.42,94.05 53.08,-0.25 43.58,-61.96 43.58,-93.72z"/>
  </g>
 </g>
</svg>
