<?xml version="1.0" encoding="UTF-8"?>
<!DOCTYPE svg PUBLIC "-//W3C//DTD SVG 1.0//EN" "http://www.w3.org/TR/2001/REC-SVG-20010904/DTD/svg10.dtd">
<!-- Creator: CorelDRAW 2020 (64-Bit) -->
<svg xmlns="http://www.w3.org/2000/svg" xml:space="preserve" width="1.21274in" height="1.21274in" version="1.0" style="shape-rendering:geometricPrecision; text-rendering:geometricPrecision; image-rendering:optimizeQuality; fill-rule:evenodd; clip-rule:evenodd"
viewBox="0 0 1212.32 1212.32"
 xmlns:xlink="http://www.w3.org/1999/xlink"
 xmlns:xodm="http://www.corel.com/coreldraw/odm/2003">
 <defs>
  <style type="text/css">
   <![CDATA[
    .fil0 {fill:black}
    .fil3 {fill:#EBB244}
    .fil2 {fill:#EFBA5D}
    .fil1 {fill:#EFBC5E}
   ]]>
  </style>
 </defs>
 <g id="Layer_x0020_1">
  <metadata id="CorelCorpID_0Corel-Layer"/>
  <g id="_2741669269152">
   <path class="fil0" d="M821.63 196.53l350.43 0 0 975.54 -350.43 0 0 -975.54zm-312.55 77.57l194.16 0.58 0 897.39 -194.16 0.4c-6.51,1.28 -73.13,1.65 -78.58,0.04 -1.87,-14.09 -0.31,-40.64 -0.31,-56.08 0,-130.03 -1.29,-839 0.87,-841.44 1.78,-2.01 6.64,-1.24 9.34,-1.21 18.99,0.19 53.65,-0.87 68.67,0.33zm-196.53 -0.05l77.66 -0.02c2.27,8.22 0.69,198.61 0.69,224.4 0,35.76 1.63,661.77 -0.51,674.73l-77.27 -1.09 -194.73 0 0 -897.4c14.07,0 185.06,1.24 194.16,-0.62zm-234.41 898.02l-37.88 0 0 -975.54 741.12 0 0 975.54 -37.88 0 0 -937.65 -665.35 0 0 937.65zm430.94 -1131.81l153.91 0 0 116.02 -153.91 0 0 -116.02zm-156.28 0l116.02 0 0 116.02 -116.02 0 0 -116.02zm-196.53 0l156.27 0 0 116.02 -156.27 0 0 -116.02zm-156.28 1172.06l1212.32 0 0 -1056.04 -506.71 0 0 -156.28 -589.58 0 0 156.28 -116.02 0 0 1056.04z"/>
   <path class="fil1" d="M509.08 1172.46l0 -898.37c-15.02,-1.2 -49.68,-0.14 -68.67,-0.33 -2.7,-0.03 -7.55,-0.8 -9.34,1.21 -2.16,2.44 -0.87,711.42 -0.87,841.44 0,15.44 -1.57,41.99 0.31,56.08 5.45,1.61 72.06,1.24 78.58,-0.04z"/>
   <path class="fil1" d="M312.55 274.04l0.57 898.02 77.27 1.09c2.14,-12.96 0.51,-638.97 0.51,-674.73 0,-25.79 1.57,-216.18 -0.69,-224.4l-77.66 0.02z"/>
   <path class="fil0" d="M940.02 509.08l116.02 0 0 153.91 -37.88 0c-0.81,3.07 0.44,1.32 -2.37,2.37l0 37.88c3.07,0.82 1.32,-0.44 2.37,2.37l37.88 0 0 153.91 -116.02 0 0 -153.91 37.89 0 0 -42.62 -37.89 0 0 -153.91zm-40.25 390.69l196.53 0 0 -430.94 -196.53 0 0 430.94z"/>
   <path class="fil2" d="M1093.92 430.1l-4.59 -1.78c4.52,-2.05 0.5,0.44 2.21,-2.12 -0.1,-0.28 -0.3,-0.99 -0.37,-0.81l-1.61 -3.12c-2.1,-4.32 -0.04,-1.2 -2.75,-4.35l-20.98 -28.74c-0.78,-1.47 0.12,-0.6 -1.05,-2.5 -0.02,-0.03 -1.46,-1.69 -1.65,-1.9l-26.37 -37.56c-0.13,-0.24 -0.25,-0.57 -0.39,-0.79l-11.13 -14.92c-0.13,-0.25 -0.2,-0.61 -0.33,-0.85l-8.58 -11.55c-0.17,-0.17 -0.45,-0.39 -0.62,-0.56l-16.52 -24.92 -4.73 0c-0.13,5.93 0.41,2.85 -1.71,5.39l-5.96 8.25c-1.39,1.37 -0.29,0.04 -1.85,1.7l-7.77 12.36c-0.13,0.22 -0.32,0.51 -0.47,0.72 -3.06,4.32 -2.14,1.41 -6.64,8.74l-7.57 10.19c-0.88,0.84 -0.34,-0.08 -1.83,1.72l-6.78 10.98c-1.04,1.98 0.08,0.39 -1.39,2.16l-26.75 36c-0.17,0.18 -0.44,0.4 -0.6,0.59l-6.78 10.98c-0.13,0.24 -0.25,0.57 -0.39,0.79l-10.8 14.07c-0.13,0.24 -0.2,0.61 -0.33,0.86l-2.94 4.17c-1.31,1.28 -0.36,0.14 -1.87,1.68l-1.67 1.88c-1.01,2.06 -0.57,1.66 -0.63,4.11 23.01,0 187.32,2.24 194.16,-0.84z"/>
   <path class="fil2" d="M994.48 1074.98l4.73 0 4.09 -7.75c0.22,-0.26 0.97,-0.91 1.22,-1.15l8.58 -11.55c0.13,-0.24 0.2,-0.61 0.33,-0.85 0.13,-0.25 0.2,-0.61 0.33,-0.86l6.06 -6.96c1.13,-1.88 0.28,-1.09 1.04,-2.51l47.03 -65.44c0.13,-0.25 0.19,-0.61 0.33,-0.86l15.92 -21.96c0.13,-0.25 0.2,-0.61 0.33,-0.86l0.72 -1.65c2.08,-3.46 5.31,-5.56 7.2,-9.37l1.55 -5.55 -194.16 0c0.12,5.41 1.02,3.73 5.45,11.12l11.84 16.58c1.64,2.73 4.51,4.02 6.06,6.96 0.78,1.47 -0.12,0.6 1.05,2.51l7.57 10.19c0.88,0.84 0.34,-0.08 1.83,1.72l10 14.86c0.88,0.84 0.34,-0.08 1.83,1.72l4.7 7.14c1.45,1.77 0.37,0.17 1.42,2.13l7.43 10.32c0.13,0.25 0.19,0.61 0.33,0.86l32.89 45.24c2.02,2.06 2.23,3.07 2.3,5.99z"/>
   <path class="fil0" d="M532.76 101.82l0 2.37c5.06,1.83 -1.9,-1.79 1.65,0.72l1.96 1.59c1.53,1.43 0.33,0.39 1.72,1.83l15.98 15.99c2.02,1.98 3.72,3.12 4.73,5.92l4.73 0c0.89,-2.46 0.18,-1.22 1.72,-3.02l1.82 -1.73c0.17,-0.17 0.43,-0.41 0.6,-0.59l14.86 -14.74c0.17,-0.18 0.44,-0.4 0.59,-0.59 0.15,-0.18 0.4,-0.46 0.54,-0.65 0.81,-1.13 0.47,-0.41 1.18,-2.37l7.1 5.92c0.25,0.24 0.94,0.94 1.18,1.18l10.06 10.07c0.88,0.87 0.31,0.31 1.19,1.17l4.14 5.34 10.64 -4.75c0.17,-0.17 0.43,-0.41 0.6,-0.59l13.03 -13.01c2.15,-2.17 3.46,-4.23 6.51,-5.33l0 -4.73c-5.06,-1.83 1.91,1.79 -1.65,-0.72 -0.14,-0.1 -0.55,-0.33 -0.72,-0.46l-18.94 -18.95c-0.61,-0.6 -0.88,-0.88 -1.77,-1.77l-31.37 -30.19 -13.61 14.8c-0.9,0.9 -1.17,1.17 -1.78,1.77l-30.78 30.78c-0.17,0.17 -0.42,0.43 -0.59,0.6l-5.33 4.14z"/>
   <path class="fil0" d="M182.32 89.98l39.07 42.62c3.45,3.46 8.97,7.17 10.65,11.84l50.85 -47.41c0.18,-0.17 0.4,-0.44 0.59,-0.59l3.02 -6.45c-5.06,-1.83 1.91,1.79 -1.65,-0.72l-11.96 -11.72c-0.73,-0.73 -0.46,-0.45 -1.19,-1.18l-13.61 -12.43 -20.13 21.31c-0.81,1.13 -0.47,0.41 -1.18,2.37l-4.73 0c-0.89,-2.46 -0.18,-1.22 -1.72,-3.02l-8.94 -8.82c-3.43,-3.42 -8.95,-7.14 -10.66,-11.84l-22.49 21.31c-0.17,0.17 -0.42,0.43 -0.59,0.6l-5.33 4.14z"/>
   <polygon class="fil0" points="390.69,118.39 430.94,118.39 430.94,78.14 390.69,78.14 "/>
   <polygon class="fil0" points="977.9,802.69 1018.15,802.69 1018.15,762.43 977.9,762.43 "/>
   <polygon class="fil0" points="977.9,606.16 1018.15,606.16 1018.15,565.91 977.9,565.91 "/>
   <path class="fil3" d="M1093.92 430.1l0 -3.9 -2.38 0c-1.7,2.56 2.31,0.07 -2.21,2.12l4.59 1.78z"/>
  </g>
 </g>
</svg>
