<?xml version="1.0" encoding="UTF-8"?>
<!DOCTYPE svg PUBLIC "-//W3C//DTD SVG 1.1//EN" "http://www.w3.org/Graphics/SVG/1.1/DTD/svg11.dtd">
<!-- Creator: CorelDRAW 2020 (64-Bit) -->
<svg xmlns="http://www.w3.org/2000/svg" xml:space="preserve" width="1.46874in" height="1.46874in" version="1.1" style="shape-rendering:geometricPrecision; text-rendering:geometricPrecision; image-rendering:optimizeQuality; fill-rule:evenodd; clip-rule:evenodd"
viewBox="0 0 232.85 232.85"
 xmlns:xlink="http://www.w3.org/1999/xlink"
 xmlns:xodm="http://www.corel.com/coreldraw/odm/2003">
 <defs>
  <style type="text/css">
   <![CDATA[
    .fil4 {fill:#C4E5F8}
    .fil1 {fill:#FF3100}
    .fil0 {fill:#FF633E}
    .fil2 {fill:#FF9900}
    .fil3 {fill:#FFB74F}
   ]]>
  </style>
 </defs>
 <g id="Layer_x0020_1">
  <metadata id="CorelCorpID_0Corel-Layer"/>
  <g id="_2741190607648">
   <path class="fil0" d="M15.01 131.57c0.67,1.28 0.67,12.08 0,13.36 0,9.44 -0.12,18.96 -0.05,28.39 0.03,3.87 0.75,2.68 11.42,2.68 4.85,0 9.7,0 14.55,0l0 16.05 49.43 0.03 -0.02 -32.46 1.99 -0.17c0.16,-0.04 0.31,-0.13 0.44,-0.17l0.91 -0.44c-16.25,1.03 -28.86,-9.8 -29.35,-25.14 -0.48,-15.01 11.7,-27.13 26.54,-26.82 -0.79,-1.28 -0.56,-2.1 -0.54,-4.1 0.01,-1.52 0.01,-3.04 0.01,-4.56 0,-3.09 -0.02,-6.18 0.02,-9.26l-49.43 0.03 0 15.6 -25.92 0 0 26.97z"/>
   <path class="fil1" d="M90.88 106.89c23.24,-0.18 33.19,29.03 19.17,43.19 -5.39,5.45 -8.34,7.13 -16.37,8.77l-0.91 0.44c-0.13,0.04 -0.29,0.13 -0.44,0.17l-1.99 0.17 0.02 32.46 49.71 -0.27 0 -15.81 25.47 0 -0.06 -30.93 0 -13.64c0.12,-2.36 0.21,-25.7 -0.01,-26.3 -0.62,-1.7 -8.74,-0.98 -12.2,-0.98 -4.4,0 -8.79,0 -13.19,0l0 -14.9 -49.71 -0.27c-0.04,3.09 -0.02,6.17 -0.02,9.26 0,1.52 0,3.04 -0.01,4.56 -0.02,2 -0.25,2.82 0.54,4.1z"/>
   <polygon class="fil2" points="90.35,232.85 152.35,232.85 152.35,191.92 140.07,191.81 90.36,192.08 "/>
   <polygon class="fil2" points="90.36,88.97 140.07,89.24 152.35,89.13 152.35,48.21 139.16,48.13 90.35,48.3 "/>
   <polygon class="fil3" points="90.35,232.85 90.36,192.08 40.93,192.05 28.65,191.91 28.65,232.85 "/>
   <polygon class="fil3" points="40.93,89 90.36,88.97 90.35,48.3 41.84,48.21 28.65,48.21 28.65,89.14 "/>
   <path class="fil4" d="M93.68 158.85c8.03,-1.64 10.97,-3.33 16.37,-8.77 14.02,-14.16 4.07,-43.37 -19.17,-43.19 -14.84,-0.31 -27.03,11.81 -26.54,26.82 0.49,15.33 13.1,26.17 29.35,25.14z"/>
   <path class="fil1" d="M90.35 48.3l48.81 -0.17c-0.09,-3.89 -3.5,-13.17 -5.02,-15.83 -5.05,-8.82 -11.84,-16.22 -20.9,-20.94 -3.32,-1.73 -11.17,-4.89 -15.92,-5l0 -6.37 -6.97 0 0 48.3z"/>
   <path class="fil0" d="M41.84 48.21l48.51 0.09 -0 -48.3 -7.12 0 0 6.37c-9.46,0.79 -20.82,7.06 -27.64,13.75 -1.84,1.81 -3.21,3.57 -4.79,5.67 -3.86,5.15 -8.96,15.53 -8.96,22.42z"/>
   <path class="fil1" d="M208.07 25.47c7.05,7.19 9.95,14.68 10.88,24.82 0.19,2.08 -0.28,8.92 -1.11,10.65l12.14 2.99c2.41,0.41 1.87,-0.59 2.18,-2.77 0.35,-2.49 0.59,-4.79 0.69,-6.99l0 -5.24c-0.18,-3.53 -0.74,-7 -1.71,-10.83 -0.42,-1.66 -0.75,-2.07 -1.3,-3.7 -1.05,-3.1 -1.82,-4.55 -3.19,-7.27 -1.14,-2.26 -2.52,-4.09 -3.88,-6.13l-4.92 -5.71c-1.7,1.42 -9.14,8.6 -9.77,10.18z"/>
   <path class="fil0" d="M208.07 25.47c0.63,-1.58 8.07,-8.76 9.77,-10.18l-4.22 -3.79c-11.73,-9.92 -29.29,-13.77 -44.9,-10.13 1.06,4.56 2.14,9.15 3.18,13.64 4.23,-2.03 16.21,-1.16 21.06,0.77 3.73,1.48 5.07,1.99 8.31,3.97 1.35,0.83 2.64,1.63 3.72,2.64 1.07,1.01 2.37,1.88 3.07,3.08z"/>
   <path class="fil0" d="M190.32 42.75l9.79 -9.66c-0.92,-0.64 -1.48,-1.24 -2.41,-2.03 -6.43,-5.45 -15.89,-7.58 -24.43,-5.59l2.72 12.31c0.84,2.88 3.2,-0.33 8.45,1.52 2.72,0.96 3.78,2.38 5.87,3.45z"/>
   <path class="fil1" d="M190.32 42.75c0.65,1.8 5.33,5.44 3.42,13.64 1.11,0.53 11.93,3.04 13.64,3.18 1.16,-4.97 1.16,-10.66 -0.58,-15.34 -3.37,-9.07 -5.08,-8.34 -6.7,-11.15l-9.79 9.66z"/>
   <polygon class="fil2" points="165.48,145.07 181,145.07 181,131.43 165.48,131.43 "/>
   <path class="fil3" d="M15.01 144.94c0.67,-1.28 0.67,-12.08 0,-13.36l-15.01 -0.15 0 13.65 15.01 -0.14z"/>
   <path class="fil0" d="M171.7 61.39l11.58 -11.51c-1.94,-1.26 -2.45,-2.31 -5.53,-2.57 -2.48,-0.21 -5,1.11 -6.21,2.33 -2.97,2.99 -3.61,8.14 0.16,11.74z"/>
   <path class="fil1" d="M171.7 61.39c3.18,3.28 8.52,3.1 11.49,-0.09 1.2,-1.29 2.25,-3.17 2.38,-5.4 0.16,-2.93 -1.06,-4.3 -2.29,-6.02l-11.58 11.51z"/>
  </g>
 </g>
</svg>
