<?xml version="1.0" encoding="UTF-8"?>
<!DOCTYPE svg PUBLIC "-//W3C//DTD SVG 1.0//EN" "http://www.w3.org/TR/2001/REC-SVG-20010904/DTD/svg10.dtd">
<!-- Creator: CorelDRAW 2020 (64-Bit) -->
<svg xmlns="http://www.w3.org/2000/svg" xml:space="preserve" width="1.38107in" height="1.38107in" version="1.0" style="shape-rendering:geometricPrecision; text-rendering:geometricPrecision; image-rendering:optimizeQuality; fill-rule:evenodd; clip-rule:evenodd"
viewBox="0 0 297.39 297.39"
 xmlns:xlink="http://www.w3.org/1999/xlink"
 xmlns:xodm="http://www.corel.com/coreldraw/odm/2003">
 <defs>
  <style type="text/css">
   <![CDATA[
    .fil0 {fill:#231F20}
    .fil1 {fill:#2488FF}
    .fil6 {fill:#403F41}
    .fil5 {fill:#555557}
    .fil8 {fill:#852636}
    .fil4 {fill:#D1D3D4}
    .fil7 {fill:#E6E7E8}
    .fil2 {fill:#FC3050}
    .fil3 {fill:#FECC00}
   ]]>
  </style>
 </defs>
 <g id="Layer_x0020_1">
  <metadata id="CorelCorpID_0Corel-Layer"/>
  <g id="_2741310254544">
   <path class="fil0" d="M-0 297.39l297.39 0 0 -9.87 -133.59 0 0 -178.32c16.58,0 35.08,3.87 39.16,-11.37 1.14,-4.25 0.33,-62.85 0.33,-75.75 0,-4.37 0.4,-8.53 -0.76,-12.01 -2.38,-7.13 -7.41,-9.42 -13.4,-10.06l-14.88 0 -64.11 0c-7.45,0.11 -12.59,2.47 -15.13,9.62 -1.88,5.3 -0.91,53.23 -0.91,62.4 0,5.42 -0.69,21.14 0.22,25.34 3.43,15.92 23.95,11.84 39.28,11.84l0 178.32 -133.59 0 0 9.87z"/>
   <path class="fil1" d="M107.53 10.3c-5.03,1.86 -3.44,9.35 -3.44,18.74 0,10.06 -0.44,64.68 0.39,66.88 1.73,4.64 11.19,3.21 18.66,3.21 10.18,0 64.57,0.47 66.89,-0.32 5.18,-1.77 3.27,-13.04 3.27,-18.65 0,-10.41 0.53,-64.27 -0.35,-66.94 -1.7,-5.18 -12.9,-3.3 -18.7,-3.3 -10.07,0 -64.49,-0.44 -66.72,0.38z"/>
   <path class="fil0" d="M297.39 242.87c-29.08,0 -24.24,1.8 -26.54,-4.91 -6.83,-19.94 -32.43,-26.38 -47.92,-12.13 -10.01,9.21 -7.63,16.4 -10.31,17.04l-19.32 0 0 -19.83c6.15,0 12.83,0.82 17.66,-2.2 3.75,-2.34 7.16,-6.53 7.09,-12.9 -0.07,-6.2 -3.72,-10.4 -7.36,-12.61 -4.62,-2.8 -11.44,-2.02 -17.25,-2.02 -1.24,-13.31 7.03,-9.92 18.57,-9.92 28.46,0 56.92,0 85.38,0l0 -9.91 -71.08 -0.17c6.77,-13 13.39,-26.92 20.03,-40.21 1.63,-3.27 2.85,-8.06 6.14,-8.93 2.31,-0.61 40.69,-0.25 44.91,-0.25l0 -10.07c-11.81,0 -23.62,0 -35.43,0 -6.6,0 -10.95,-0.56 -15.46,1.97 -4.08,2.29 -5.87,5.79 -7.97,10.04 -4.02,8.12 -7.76,15.52 -11.81,23.62 -4.01,8.01 -7.72,15.89 -11.81,23.62 -12.72,0 -21.62,-2.24 -28.89,6.54 -4.76,5.75 -3.06,22.67 -3.06,32.96 0,11.78 0.18,23.69 -0.02,35.45 -0.11,6.44 -1.75,5.21 12.8,5.21 6,0 12,0 18.01,0 0.24,10.89 13.19,24.42 29.04,24.42 12.75,0 24.05,-8.19 27.96,-19.11 0.52,-1.44 1.02,-3.98 1.66,-5.31l24.98 0 0 -10.38z"/>
   <path class="fil0" d="M-0 123.91c7.36,0 14.72,0.01 22.07,-0 10.44,-0.02 9.3,0.07 12.71,8.59 1.88,4.7 11.88,28.18 11.69,31.06l-46.47 0 0 9.9c31.56,0 63.12,0 94.68,0 16.69,-0 14.37,-4.21 14.37,32.73 0,24 2.61,26.84 -8.56,26.78 -3.83,-0.02 -7.88,0.32 -11.62,-0.23 -1.59,-4.01 -1.74,-6.48 -3.8,-9.98 -14.19,-24.17 -51.36,-16.06 -54.81,10.2l-30.26 0 0 9.83 30.2 0c0.25,11.09 13.47,24.93 29.03,25.01 7.95,0.04 15.88,-3.51 19.91,-7.43 4.2,-4.08 9.11,-10.26 9.72,-17.58 5.57,0 16.04,0.91 20.29,-0.62 13.29,-4.8 9.92,-19.53 9.92,-33.06 0,-7.16 0,-14.33 0,-21.49 0,-10.91 1.1,-24.5 -17.99,-24.41 -14.33,0.07 -28.67,0.01 -43,0.01l-15.34 -38.09c-2.67,-6.43 -6.65,-11.23 -15.42,-11.3 -9.09,-0.07 -18.23,0.03 -27.32,0.03l0 10.07z"/>
   <path class="fil2" d="M-0 178.44l49.51 -0 0.44 9.9 -49.95 0 0 29.51 25.03 0.19 -0.28 10.17 -24.75 0.02 0 4.73 30.26 0c3.45,-26.26 40.61,-34.38 54.81,-10.2 2.05,3.5 2.21,5.97 3.8,9.98 3.74,0.56 7.8,0.21 11.62,0.23 11.16,0.06 8.56,-2.78 8.56,-26.78 0,-36.94 2.31,-32.73 -14.37,-32.73 -31.56,0 -63.12,0 -94.68,0l0 4.97z"/>
   <path class="fil3" d="M297.39 242.87l0 -9.92 -9.92 0 0.01 -39.65 9.91 0 0 -9.92c-28.46,0 -56.92,0 -85.38,0 -11.54,0 -19.8,-3.39 -18.57,9.92 5.81,0 12.63,-0.79 17.25,2.02 3.64,2.21 7.29,6.41 7.36,12.61 0.07,6.38 -3.34,10.56 -7.09,12.9 -4.83,3.02 -11.51,2.2 -17.66,2.2l0 19.83 19.32 0c2.67,-0.64 0.3,-7.83 10.31,-17.04 15.49,-14.25 41.09,-7.81 47.92,12.13 2.3,6.71 -2.55,4.91 26.54,4.91z"/>
   <path class="fil4" d="M297.39 173.48l0 -49.57c-4.21,0 -42.59,-0.36 -44.91,0.25 -3.29,0.87 -4.51,5.66 -6.14,8.93 -6.64,13.29 -13.26,27.22 -20.03,40.21l71.08 0.17z"/>
   <path class="fil0" d="M139.03 59.48c24.74,0 39.4,4.6 39.41,-19.98 0.01,-24.4 -14.95,-19.59 -39.62,-19.67 -11.95,-0.04 -9.95,0.63 -9.95,19.67 0,9.45 -0.48,35.96 -0,44.18 0.31,5.36 5.65,7.44 8.65,3.86 2.84,-3.39 0.43,-22.01 1.51,-28.06z"/>
   <path class="fil5" d="M143.72 287.24l2.07 0.32 5.81 -0.05 2.06 -0.19 0.01 -177.95c-2.62,-0.71 -7.34,-0.71 -9.95,0l0 177.88z"/>
   <path class="fil4" d="M-0 163.56l46.47 0c0.2,-2.88 -9.8,-26.36 -11.69,-31.06 -3.41,-8.52 -2.27,-8.61 -12.71,-8.59 -7.36,0.01 -14.72,0 -22.07,0l0 39.65z"/>
   <path class="fil6" d="M54.91 218.61c-25.24,6.2 -16.52,43.71 8.43,38.73 26.18,-5.22 17.34,-45.06 -8.43,-38.73z"/>
   <path class="fil6" d="M238.47 228.49c-25.3,5.82 -16.98,44.01 8.41,38.73 9.64,-2 17.88,-11.53 15.35,-23.59 -1.99,-9.47 -11.7,-17.92 -23.77,-15.15z"/>
   <path class="fil1" d="M138.77 49.56c6.6,0 13.2,-0.03 19.8,0 9.4,0.04 9.95,-0.78 9.96,-10.07 0,-12.36 -0.97,-9.76 -29.62,-9.76l-0.13 19.82z"/>
   <polygon class="fil0" points="-0,188.34 49.95,188.34 49.51,178.44 -0,178.44 "/>
   <path class="fil0" d="M248.39 146.95l8.87 3.19c3.55,-5.54 0.78,-11.25 9.31,-11.38 6.93,-0.11 13.93,0.14 20.87,-0.01l0.04 -9.83c-21.93,-0.6 -35.38,-3.65 -39.09,18.04z"/>
   <polygon class="fil0" points="297.39,232.95 297.39,193.3 287.47,193.3 287.47,232.95 "/>
   <path class="fil0" d="M239.78 238.48c-12.01,4.23 -6.58,22.44 5.91,18.81 12.67,-3.68 6.46,-23.16 -5.91,-18.81z"/>
   <path class="fil0" d="M56.27 228.63c-11.97,4.5 -6.25,22.16 5.84,18.77 12.44,-3.5 7.11,-23.64 -5.84,-18.77z"/>
   <polygon class="fil0" points="-0,227.66 24.55,227.66 24.39,218.42 -0,218.42 "/>
   <path class="fil7" d="M193.3 210.84l0.04 2.29c4.1,0 11.03,0.97 13.47,-1.66 3.78,-4.07 0.12,-8.25 -5.26,-8.25l-8.24 0 -0.01 7.63z"/>
   <polygon class="fil8" points="-0,227.66 -0,228.23 24.75,228.21 25.03,218.04 -0,217.85 -0,218.42 24.39,218.42 24.55,227.66 "/>
  </g>
 </g>
</svg>
