<?xml version="1.0" encoding="UTF-8"?>
<!DOCTYPE svg PUBLIC "-//W3C//DTD SVG 1.0//EN" "http://www.w3.org/TR/2001/REC-SVG-20010904/DTD/svg10.dtd">
<!-- Creator: CorelDRAW 2020 (64-Bit) -->
<svg xmlns="http://www.w3.org/2000/svg" xml:space="preserve" width="1.43665in" height="1.33844in" version="1.0" style="shape-rendering:geometricPrecision; text-rendering:geometricPrecision; image-rendering:optimizeQuality; fill-rule:evenodd; clip-rule:evenodd"
viewBox="0 0 324.61 302.42"
 xmlns:xlink="http://www.w3.org/1999/xlink"
 xmlns:xodm="http://www.corel.com/coreldraw/odm/2003">
 <defs>
  <style type="text/css">
   <![CDATA[
    .fil0 {fill:black}
   ]]>
  </style>
 </defs>
 <g id="Layer_x0020_1">
  <metadata id="CorelCorpID_0Corel-Layer"/>
  <g id="_2741660165136">
   <path class="fil0" d="M21.56 251.07l281.5 0 0 38.68 -281.5 0 0 -12.68c72.77,0 145.98,-0.25 218.73,0 1.83,0.01 4.56,-0.23 6.36,-0.93 0.07,-0.03 0.15,-0.07 0.22,-0.1l0.82 -0.45c0.31,-0.21 0.74,-0.6 1.02,-0.88 2.11,-2.14 0.2,-1.47 1.72,-2.08l0 -5.07c-0.8,-0.29 -0.35,0.24 -1.06,-0.84 -0.78,-1.18 0.01,-0.99 -1.67,-1.82l-0.65 -0.31c-1.48,-0.74 -1.14,-0.87 -3.26,-0.86 -73.85,0.33 -148.37,0.02 -222.24,0.02l0 -12.68zm257.41 -208.59l24.09 0 0 195.27 -24.09 0 0 -195.27zm-61.5 183.23l22.82 0 0 12.05 -22.82 0 0 -12.05zm-66.57 0l22.82 0 0 12.05 -22.82 0 0 -12.05zm-66.57 0l22.82 0 0 12.05 -22.82 0 0 -12.05zm-62.77 -183.23l24.09 0 0 195.27 -24.09 0 0 -195.27zm218.73 169.91l-22.82 0c0,-1.15 -0.13,-1.9 0.21,-2.96l1.57 -3.81c0.73,-1.44 1.1,-1.47 2.33,-2.74l2.64 -1.8c0.09,-0.04 0.32,-0.18 0.41,-0.22 1.94,-0.98 7.22,-0.54 7.85,-0.31l3.84 2.5c1.51,1.54 1.43,1.08 2.28,2.79l1.47 3.6c0.32,1.02 0.21,1.78 0.21,2.96zm-66.57 0l-22.82 0 0.4 -2.77c0.02,-0.08 0.06,-0.16 0.08,-0.24 0.51,-1.85 -0.33,-0.52 0.99,-3.13l0.21 -0.43c0.03,-0.07 0.07,-0.15 0.1,-0.22l1.38 -1.79c1.07,-1.04 1.48,-1.69 2.74,-2.33l0.85 -0.42c1.92,-0.99 5.26,-1.02 7.5,-0.72l0.76 0.19c0.07,0.03 0.15,0.07 0.22,0.1l1.89 0.96c1.13,0.61 1.43,1.16 2.53,2.23 1.27,1.23 1.16,1.28 2.01,3.06l0.94 2.55c0.32,1.02 0.21,1.78 0.21,2.96zm-66.57 0l-22.82 0 0.4 -2.77c0.02,-0.08 0.06,-0.16 0.08,-0.24l0.99 -3.13c1.19,-2.37 0.68,-1.37 2.64,-3.38 0.06,-0.07 0.41,-0.43 0.47,-0.48 0.09,-0.08 0.64,-0.53 0.7,-0.57l2.3 -1.19c1.23,-0.52 6.57,-0.4 7.44,-0.1 0.07,0.03 0.15,0.07 0.22,0.1l1.89 0.96c1.13,0.6 1.43,1.16 2.53,2.23 0.39,0.38 0.31,0.25 0.64,0.63 0.06,0.07 0.23,0.27 0.28,0.35 0.04,0.06 0.09,0.14 0.12,0.19l0.72 1.18c1.22,1.62 0.46,0.52 0.85,2.31 0.41,1.84 0.54,0.16 0.54,3.89zm-35.5 25.36l-13.32 0 0 -81.79 207.96 0 0 81.79 -13.32 0c0,-2.72 0.42,-29.22 -0.13,-31.26l-4.94 -10.28c-0.82,-0.8 -1.5,-1.49 -2.38,-2.37l-1.73 -1.75c-0.07,-0.06 -0.28,-0.23 -0.35,-0.28l-12.01 -4.79c-1.67,-0.14 -4.01,-0.27 -5.66,0.07l-3.46 0.98c-1.16,0.35 -2.05,0.38 -3.16,0.96l-2.73 1.39c-0.06,0.04 -0.13,0.09 -0.19,0.13l-0.9 0.69c-0.06,0.04 -0.14,0.08 -0.2,0.12l-1 0.59c-0.81,0.63 0.05,-0.08 -0.65,0.62 -1.89,1.92 -4.14,3.63 -5.33,6.08 -0.03,0.07 -0.07,0.15 -0.1,0.21 -0.13,0.26 -0.22,0.45 -0.32,0.64l-0.85 1.69c-0.05,0.1 -0.41,0.78 -0.43,0.84l-1.68 7.51 0 28.21 -18.39 0c0,-2.86 0.5,-29.44 -0.3,-31.72l-1.11 -3.33c-0.03,-0.08 -0.05,-0.16 -0.08,-0.23l-2.94 -5.62 -4.13 -4.11c-0.96,-0.97 -1.42,-1.53 -2.63,-2.12l-2.96 -1.47c-0.09,-0.05 -0.8,-0.43 -0.83,-0.44l-3.24 -0.89c-0.08,-0.02 -0.17,-0.04 -0.25,-0.06l-1.81 -0.41c-2.14,-0.72 -6,-0.5 -7.85,0.09l-8.42 2.99c-0.06,0.04 -0.13,0.09 -0.19,0.13l-0.9 0.69c-1.84,1.18 -5.65,4.62 -6.65,6.35 -0.05,0.08 -0.17,0.33 -0.21,0.42 -1.19,2.36 -1.78,3.27 -2.57,5.67l-0.64 1.9c-1.04,2.96 -0.48,10.22 -0.48,13.47 0,6.23 0,12.47 0,18.7l-18.39 0c0,-2.86 0.5,-29.44 -0.3,-31.72l-3.08 -7.38c-0.03,-0.07 -0.07,-0.15 -0.1,-0.21l-6.33 -6.98 -8.66 -3.71c-0.09,-0.02 -0.18,-0.03 -0.27,-0.05 -3.48,-0.7 -3.25,-0.88 -7.59,-0.69 -1.4,0.06 -2.55,0.48 -3.87,0.89l-9.27 4.67 -4.16 4.4c-0.04,0.06 -0.07,0.15 -0.11,0.21 -0.03,0.06 -0.07,0.15 -0.11,0.21 -0.04,0.06 -0.08,0.14 -0.12,0.2 -0.04,0.06 -0.09,0.14 -0.13,0.19l-0.56 0.71c-0.04,0.06 -0.09,0.13 -0.13,0.19l-2.27 5.02c-0.02,0.08 -0.06,0.16 -0.08,0.23l-0.74 2.12c-0.08,0.23 -0.12,-0.18 -0.28,0.98 -0.36,2.62 -0.01,27.2 -0.01,30.74zm174.35 -163.57l3.37 -2.02c0.06,-0.03 0.15,-0.07 0.22,-0.1l1.71 -0.83c0.02,-0.01 0.6,-0.3 0.63,-0.32l2.53 -1.59c0.16,-0.08 0.4,-0.2 0.64,-0.31 0.07,-0.03 0.15,-0.07 0.21,-0.1l6.97 -4.76c0.06,-0.04 0.15,-0.07 0.21,-0.11l1.9 -1.27c0.06,-0.04 0.15,-0.07 0.21,-0.11 0.06,-0.04 0.14,-0.08 0.2,-0.12 1.46,-0.94 0.27,-0.6 1.5,-1.04l0 81.79 -20.29 0 0 -69.11zm-38.67 14.58l0.63 0c0.48,-1.19 -0.31,-0.22 1.41,-0.81l2.56 -0.61c0.08,-0.02 0.16,-0.05 0.24,-0.08l0.93 -0.34c0.36,-0.12 0.71,-0.23 0.95,-0.31l4.91 -1.43c0.25,-0.08 0.38,-0.12 0.72,-0.23l5.46 -1.83c0.34,-0.11 0.38,-0.09 0.74,-0.21l6.22 -2.34c0.46,-0.09 0.74,-0.06 1.21,-0.06l0 62.77 -25.99 0 0 -54.53zm-38.68 5.07c2.09,0 4.95,0.39 6.75,-0.22 2.74,-0.92 3.42,-0.13 6.57,-0.4 2.5,-0.22 -0.01,-0.57 2.83,-0.66 2.47,-0.08 0.89,0.34 3.09,-0.4 1.95,-0.65 1.41,0.37 4.44,-0.63 0.85,-0.28 0.63,-0.22 1.68,-0.22l0 51.99 -25.36 0 0 -49.45zm-38.67 -2.54c1.69,0 1.27,-0.13 2.54,0.32 1.9,0.68 2.26,0.07 3.74,0.38l1.15 0.44c1.14,0.32 2.26,-0.02 3.29,0.2 1.86,0.39 -0.46,0.11 1.39,0.51 2.14,0.46 4.76,-0.37 6.69,0.28 2.07,0.7 3.61,0.41 6.56,0.41l0 49.45 -25.36 0 0 -51.99zm-38.68 -11.41c0.83,0.3 0.33,0.16 0.63,0.32l0.83 0.43c0.06,0.03 0.14,0.08 0.21,0.11l7.65 2.81c0.08,0.03 0.16,0.05 0.24,0.07l13.16 3.96c1.22,0.29 0.51,0.55 2.62,0.55l0 55.16 -25.36 0 0 -63.4zm-32.97 -18.39c1.34,0.48 -0.1,-0.11 1.13,0.78l2.27 1.53c0.4,0.25 0.26,0.12 0.61,0.34 1.35,0.81 0.78,0.89 2.12,1.69l2.52 1.6c0.17,0.11 0.4,0.32 0.72,0.55 0.05,0.04 0.12,0.1 0.18,0.14l4.09 2.25c0.07,0.06 0.27,0.23 0.35,0.28l0.38 0.25c0.03,0.02 0.61,0.31 0.63,0.32l0.43 0.2c0.07,0.03 0.15,0.07 0.21,0.1l0.85 0.42c2.79,1.36 1.18,1.55 3.17,1.59l0 69.74 -19.65 0 0 -81.79zm212.39 -48.82l41.21 0 0 16.48 -41.21 0 0 -16.48zm-258.04 0l41.21 0 0 16.48 -41.21 0 0 -16.48zm-12.68 -8.88l0 34.24c1.05,0.42 0.36,0.36 0.99,1.23 0.04,0.05 0.31,0.39 0.43,0.52l1.57 1.6c0.18,0.13 0.17,0.15 0.39,0.24l3.29 0.83c0.4,0.06 1.14,0.02 1.57,0.02l0 244.09c0,2.91 -0.58,7.49 0.31,10.15 0.35,1.04 0.39,2.09 0.96,2.85 0.64,0.85 0.6,-0.11 0.63,1.59 0.35,0.01 0.3,-0.03 0.58,0.05 0.74,0.21 1.05,0.45 1.32,1.21l300.52 0c0.18,-0.51 -0.3,-0.33 0.63,-0.96l1.28 -0.31c0.05,-2.23 0.79,-0.98 1.2,-2.6l0.57 -2.29c0.56,-2.04 0.13,-252.64 0.13,-253.79 1.85,0 2.72,-0.39 4.1,-0.65 0.7,-0.13 0.45,0.29 1.62,-0.91l1.53 -1.64c0.04,-0.06 0.08,-0.14 0.12,-0.2 0.04,-0.06 0.08,-0.14 0.12,-0.2 0.66,-0.95 -0.56,-0.31 0.75,-0.84l0 -34.24c-0.7,-0.25 -0.64,-0.21 -1.06,-0.84 -0.63,-0.96 0.3,-0.22 -0.69,-1.21 -0.85,-0.85 -1.61,-0.51 -2.06,-1.75l-58.96 0c-0.43,1.05 -0.36,0.36 -1.23,0.99 -0.8,0.58 -1.91,1.51 -2.35,2.4l-0.64 1.89c-0.32,1.02 -0.21,3.01 -0.21,4.23 0,4.36 -0.35,21.97 -0.01,26.01 0.13,1.54 0.72,3.02 1.49,4.22l1.07 1.14c0.06,0.04 0.14,0.09 0.19,0.12l1.51 0.71c1.51,0.4 2.92,0.77 4.62,0.77l0 2.54c-0.96,0.35 -0.29,0.01 -1.11,0.79l-10.26 7.81c-0.06,0.04 -0.13,0.1 -0.18,0.14 -0.37,0.27 -0.51,0.41 -0.72,0.55l-0.81 0.46c-0.06,0.04 -0.14,0.09 -0.19,0.13l-15.04 8.73c-0.06,0.03 -0.15,0.07 -0.21,0.1 -0.06,0.03 -0.15,0.07 -0.21,0.11 -0.06,0.03 -0.15,0.07 -0.21,0.11 -0.25,0.12 -0.45,0.23 -0.63,0.32l-16.38 6.76c-0.34,0.11 -0.47,0.15 -0.72,0.23 -0.1,0.03 -0.37,0.14 -0.46,0.17 -0.08,0.03 -0.16,0.06 -0.23,0.08l-4.77 1.57c-0.08,0.03 -0.16,0.06 -0.23,0.09l-21.16 5.15c-0.27,0.09 0.25,0.05 -0.7,0.25 -0.41,0.09 -0.77,0.07 -1.19,0.08 -1.97,0.01 -2.28,0.51 -3.8,0.63 -0.67,0.06 -1.57,-0.06 -2.25,-0.03l-1.78 0.44c-1.47,0.49 -2.74,0.01 -4.22,0.54l-0.45 0.18c-2.4,0.68 -5.47,-0.38 -7.79,0.45l-0.45 0.18c-1.24,0.35 -13.39,0.36 -15.07,0.12 -1.91,-0.28 -0.04,-0.2 -1.66,-0.56 -0.38,-0.08 -0.79,-0.08 -1.18,-0.09l-4.49 0.05c-1.96,-0.03 -1.67,-0.62 -3.45,-0.67 -3.16,-0.1 -2.01,-0.34 -3.84,-0.6l-4.11 -0.33c-1.13,-0.4 -3,-0.14 -4.22,-0.54l-4.94 -1.09c-0.61,-0.12 -0.3,-0.05 -0.76,-0.19l-6.8 -1.44c-0.08,-0.02 -0.16,-0.06 -0.24,-0.08l-1.85 -0.37c-0.08,-0.02 -0.16,-0.06 -0.23,-0.08l-0.7 -0.25c-0.08,-0.03 -0.16,-0.05 -0.24,-0.07 -0.31,-0.1 -0.49,-0.15 -0.72,-0.23l-6.11 -1.82c-0.08,-0.03 -0.16,-0.06 -0.23,-0.08l-8.47 -2.94c-0.09,-0.04 -0.32,-0.18 -0.41,-0.22l-15.86 -6.96c-0,-0 -0.42,-0.21 -0.42,-0.21 -0.24,-0.12 -0.6,-0.3 -0.85,-0.42l-10.76 -6.36c-0.06,-0.04 -0.14,-0.09 -0.19,-0.13 -0.02,-0.02 -0.36,-0.3 -0.53,-0.42 -0.05,-0.04 -0.13,-0.1 -0.18,-0.14l-7.98 -5.65c-1.01,-0.63 0.51,0.44 -0.38,-0.26l-2.17 -1.95c-0.06,-0.04 -0.15,-0.07 -0.21,-0.11l-1.75 -1.42c-0.49,-0.39 -0.12,-0.24 -0.79,-0.48l0 -2.54 4.87 -0.84c0.08,-0.02 0.16,-0.06 0.23,-0.09l2.42 -2.01c1.08,-1.86 1.39,-3.29 1.36,-5.61 -0.06,-5.89 0.58,-26.26 -0.39,-29.1 -0.31,-0.91 -0.48,-1.61 -1.18,-2.31l-0.33 -0.31c-1.7,-1.65 -2.14,-1.22 -2.54,-2.21l-58.96 0c-0.45,1.24 -1.21,0.9 -2.06,1.75 -0.85,0.85 -0.51,1.61 -1.75,2.06z"/>
   <path class="fil0" d="M271.35 277.06l1.27 0c0.51,-1.26 -0.49,-0.15 1.43,-0.79 0.08,-0.03 0.17,-0.05 0.24,-0.07l3.31 -2.71c0.08,-0.13 0.32,-0.59 0.33,-0.62 0.47,-0.99 0.15,0.58 0.38,-1.2 0.28,-2.13 0.1,-3.62 -0.71,-4.98l-0.24 -0.39c-0.63,-0.89 -1.04,-1.03 -1.98,-1.5l-1.92 -0.93c-2.23,-0.63 -3.42,0.24 -4.86,0.93 -1.59,0.77 -1.13,0.31 -1.9,1.9 -0.03,0.07 -0.07,0.15 -0.1,0.22l-0.83 1.71c-0.49,1.76 -0.15,3.61 0.61,4.87 0.04,0.06 0.08,0.14 0.12,0.2l1.9 1.9c2.31,1.5 2.41,0.1 2.96,1.48z"/>
  </g>
 </g>
</svg>
