<?xml version="1.0" encoding="UTF-8"?>
<!DOCTYPE svg PUBLIC "-//W3C//DTD SVG 1.0//EN" "http://www.w3.org/TR/2001/REC-SVG-20010904/DTD/svg10.dtd">
<!-- Creator: CorelDRAW 2020 (64-Bit) -->
<svg xmlns="http://www.w3.org/2000/svg" xml:space="preserve" width="1.15756in" height="1.41112in" version="1.0" style="shape-rendering:geometricPrecision; text-rendering:geometricPrecision; image-rendering:optimizeQuality; fill-rule:evenodd; clip-rule:evenodd"
viewBox="0 0 201.88 246.1"
 xmlns:xlink="http://www.w3.org/1999/xlink"
 xmlns:xodm="http://www.corel.com/coreldraw/odm/2003">
 <defs>
  <style type="text/css">
   <![CDATA[
    .fil0 {fill:black}
   ]]>
  </style>
 </defs>
 <g id="Layer_x0020_1">
  <metadata id="CorelCorpID_0Corel-Layer"/>
  <g id="_2741677440144">
   <path class="fil0" d="M9.61 104.31l0 -66.33c8.34,0 16.95,-6.42 22.19,-12.9 2.73,-3.38 6.17,-10.89 6.17,-15.46l125.94 0c0,7.11 5.59,16.16 11.12,20.6 0.76,0.61 1.03,0.98 1.78,1.59 3.38,2.73 10.89,6.17 15.46,6.17l0 66.33c0,28.53 -5.26,54.92 -20.18,77.39 -6.12,9.21 -10.78,15.31 -18.62,23.19 -3.41,3.43 -11.4,9.88 -15.23,12.65 -6.59,4.77 -18.8,11.67 -26.91,14.91 -11.04,4.41 -9.59,4.47 -20.76,0l-13.86 -6.81c-7.2,-4.3 -14.62,-8.49 -20.83,-14.26 -1.37,-1.28 -2.33,-1.88 -3.62,-3.11 -1.33,-1.28 -2.29,-2.31 -3.6,-3.62 -10.7,-10.7 -16.16,-17.89 -23.88,-31.88 -6.38,-11.55 -12.03,-28.6 -13.65,-42.11 -1.01,-8.47 -1.52,-16.91 -1.52,-26.35zm92.05 141.8l-1.4 0c-1.88,-0.24 -4.27,-1.4 -10.67,-3.54l-24.01 -12.04c-1.63,-1.07 -2.85,-1.73 -4.43,-2.78 -3.31,-2.21 -13.07,-9.72 -16.08,-12.76l-3.43 -3.3c-7.99,-7.99 -9.79,-10.52 -16.7,-19.83 -5.32,-7.17 -12.12,-20.29 -15.11,-28.15 -5.58,-14.72 -9.82,-31.26 -9.82,-47.86l0 -83.16c0,-0.8 1.06,-2.21 1.62,-2.71 2.34,-2.09 4.91,-0.68 9.75,-2.26 8.53,-2.8 13.55,-7.82 16.34,-16.34 0.88,-2.68 0.39,-11.37 4.97,-11.37l136.51 0c1.27,0 3.47,1.6 3.84,4.34 0.36,2.67 0.34,4.62 1.13,7.04 2.8,8.53 7.82,13.55 16.34,16.34 2.68,0.88 11.37,0.39 11.37,4.97l0 83.16c0,9.63 -1.53,17.88 -3.16,26.16 -1.57,7.94 -4.07,15.25 -6.8,22.04 -3.02,7.51 -5.3,12.12 -9.54,19.3l-8.65 12.98c-1.14,1.51 -2.04,2.57 -3.21,4 -2.37,2.91 -4.08,5.02 -6.74,7.68 -11.35,11.34 -8.09,7.98 -19.17,16.88 -7.59,6.1 -23.58,14.8 -32.68,17.79 -6.17,2.03 -8.42,3.19 -10.28,3.42z"/>
   <path class="fil0" d="M19.23 48.55l0 68.26c0,13.24 3.84,27.69 8.1,39.48 2.64,7.29 7.85,16.64 12.28,23.29 10.36,15.56 26.91,30.69 43.86,39.29 3.53,1.79 14.48,7.04 17.95,7.04 3.83,0 18.96,-8.13 24.31,-11.26 7.79,-4.55 20.56,-15.04 26.02,-21.57 1.15,-1.38 1.38,-1.77 2.67,-3.1 3.5,-3.58 9.39,-12.73 12.28,-17.52 9.06,-15 15.95,-38.14 15.95,-55.67l0 -68.26c0,-3.98 -5.01,-5.2 -7.68,-6.74 -3.29,-1.9 -5.62,-3.91 -8.31,-6.59 -2.65,-2.65 -4.39,-4.65 -6.41,-8.01 -1.7,-2.81 -2.88,-7.98 -6.92,-7.98l-34.13 0c-4.16,0 -6.8,9.62 1.89,9.65l28.87 -0.03c4.73,8.94 10.9,15.9 19.61,21.25 1.33,0.82 3.46,1.24 3.46,2.79l0 52.39c0,25.96 -5.3,50.92 -20.32,71.01 -1.59,2.13 -3.07,4.33 -4.8,6.26 -1.11,1.24 -1.5,1.97 -2.64,3.13 -0.59,0.61 -0.87,0.8 -1.42,1.46 -4.04,4.86 -14.54,13.54 -19.94,17.07 -3.84,2.51 -19.58,11.42 -22.99,11.42 -0.74,0 -6.43,-2.41 -7.83,-3.02 -2.43,-1.05 -5.47,-2.57 -7.65,-3.89 -14.33,-8.66 -14.16,-9.07 -25.93,-19.74 -0.95,-0.86 -1.58,-1.94 -2.7,-3.07 -1.22,-1.23 -1.51,-1.86 -2.64,-3.12 -18.62,-20.85 -25.35,-49.15 -25.35,-77.51l0 -52.39c0,-1.55 1.8,-1.81 3.17,-2.6 1.26,-0.74 2.3,-1.49 3.48,-2.29 6.98,-4.72 12.53,-11.76 16.43,-19.14l28.87 0.03c1.98,-0 2.87,-0.18 3.86,-0.95 4.05,-3.14 0.9,-8.7 -1.97,-8.7l-34.13 0c-6.2,0 -4.82,12.43 -21.35,22.4 -2.81,1.7 -7.98,2.88 -7.98,6.92z"/>
   <path class="fil0" d="M67.29 114.88c-0.56,-2.88 1.31,-10.76 2.67,-14.15 2.96,-7.36 9.21,-14.16 16.23,-17.42 8.81,-4.09 18.22,-4.56 27.46,-0.84 3.79,1.52 7.64,3.99 10.25,6.57 7.43,7.34 9.24,12.96 10.57,23.11 0.19,1.43 -0.27,5.71 -0.56,7.35 -1.77,10.12 -9.12,19.84 -18.23,24.07 -22.97,10.67 -45.82,-5.89 -47.84,-24.92l-0.55 -3.77zm-9.61 -2.88c0,15.07 5.99,28.35 18.07,36.73 1.89,1.31 4.47,3.03 6.64,3.94 15.08,6.27 29.79,5.58 43.46,-3.74 3.81,-2.6 7.74,-6.48 10.38,-10.29 9.53,-13.74 10.17,-28.21 4.07,-43.4 -1.72,-4.28 -5.49,-9.21 -8.71,-12.44 -8.84,-8.84 -19.04,-12.62 -32.09,-12.62 -22.03,0 -41.82,19.65 -41.82,41.82z"/>
   <path class="fil0" d="M96.13 120.65c-4.75,-3.18 -4.74,-7.21 -10.57,-7.21 -2.73,0 -3.85,3.12 -3.85,5.77 0,1.96 11.5,13.46 13.46,13.46l1.92 0c1.97,0 27.88,-25.91 27.88,-27.88 0,-4.23 -1.54,-5.77 -5.77,-5.77 -2.92,0 -19.02,18.92 -23.07,21.63z"/>
   <path class="fil0" d="M96.13 23.07c0,9.06 9.61,5.83 9.61,1.92 0,-8.86 -9.61,-5.98 -9.61,-1.92z"/>
  </g>
 </g>
</svg>
