<?xml version="1.0" encoding="UTF-8"?>
<!DOCTYPE svg PUBLIC "-//W3C//DTD SVG 1.0//EN" "http://www.w3.org/TR/2001/REC-SVG-20010904/DTD/svg10.dtd">
<!-- Creator: CorelDRAW 2020 (64-Bit) -->
<svg xmlns="http://www.w3.org/2000/svg" xml:space="preserve" width="1.22685in" height="1.35161in" version="1.0" style="shape-rendering:geometricPrecision; text-rendering:geometricPrecision; image-rendering:optimizeQuality; fill-rule:evenodd; clip-rule:evenodd"
viewBox="0 0 166.82 183.79"
 xmlns:xlink="http://www.w3.org/1999/xlink"
 xmlns:xodm="http://www.corel.com/coreldraw/odm/2003">
 <defs>
  <style type="text/css">
   <![CDATA[
    .fil9 {fill:#1E2D64}
    .fil8 {fill:#292C2F}
    .fil14 {fill:#373B41}
    .fil10 {fill:#3E4A83}
    .fil17 {fill:#46738C}
    .fil7 {fill:#622C15}
    .fil4 {fill:#68280E}
    .fil2 {fill:#75BEFF}
    .fil20 {fill:#75BEFF}
    .fil6 {fill:#7E381B}
    .fil16 {fill:#86AFB9}
    .fil0 {fill:#8A8A8E}
    .fil3 {fill:#91CAFE}
    .fil21 {fill:#91CAFE}
    .fil1 {fill:#955028}
    .fil19 {fill:#955028}
    .fil15 {fill:#A4C7CD}
    .fil11 {fill:#B96746}
    .fil5 {fill:#BA6645}
    .fil18 {fill:#BA6645}
    .fil12 {fill:#FBFDFD}
    .fil13 {fill:#FEFEFC}
   ]]>
  </style>
 </defs>
 <g id="Layer_x0020_1">
  <metadata id="CorelCorpID_0Corel-Layer"/>
  <g id="_2741274092384">
   <path class="fil0" d="M100.93 91.87l0 -18.24c1.52,0.55 2.84,0.98 3.7,2.74l1.49 2.99c0.66,1.3 0.35,0.93 0.71,1.79l2.03 4.05c0.02,0.04 0.04,0.08 0.06,0.12l0.99 2.23c0.01,0.05 0.03,0.09 0.04,0.14l0.82 1.69c0.07,0.14 0.02,-0.08 0.18,0.36l-3.12 0.64c-0.64,0.17 -0.24,-0.08 -1.79,0.35l-1.29 0.32c-0.77,0.24 -0.43,-0.07 -1.79,0.36l-0.77 0.12c-1.29,0.11 -0.57,0.11 -1.25,0.36zm-11.45 -7.02c-0.74,0 -1.15,0.17 -1.34,-0.37 -0.03,-0.09 -0.06,-1.42 -0.04,-1.54 0.13,-0.69 0.35,-0.54 1.19,-0.53l6.91 0.07c0.19,0.72 0.22,1.63 -0.01,2.35l-6.7 0.03zm-55.08 10.66c1.99,0.1 4.7,0.86 6.71,1.26l6.19 1.26c0.49,-0.02 -0.05,0.16 0.34,-0.09 0.02,-0.79 0.15,-0.63 0.18,-0.71l1.08 -4.65c0.16,-0.49 0.29,-1.91 0.71,-3.22 0.01,-0.04 0.04,-0.09 0.05,-0.13l0.53 -2.69c0.21,-1.05 0.06,0.25 0.28,-0.79 0.07,-0.33 0.04,-0.7 0.04,-1.04l0.95 -0.48c0.7,-0.45 0.54,-0.73 1.43,-1.25l0.24 -0.12c0.03,-0.02 0.08,-0.04 0.12,-0.06l1.21 -1.11c0.03,-0.02 0.08,-0.05 0.11,-0.07 0.03,-0.02 0.08,-0.04 0.12,-0.06l0.93 -0.68c1.16,-1.2 0.79,-0.46 1.69,-1.35l0.48 -0.41c0.03,-0.02 0.08,-0.04 0.12,-0.06l1.36 -1.14c0.04,-0.03 0.16,-0.13 0.2,-0.16 0.03,-0.02 0.08,-0.05 0.11,-0.07l0.58 -0.32c0.18,-0.13 0.28,-0.23 0.47,-0.43 0.85,-0.88 0.44,-0.45 1.21,-0.93 0.2,-0.13 0.35,-0.27 0.49,-0.41 0.23,-0.23 0.44,-0.51 0.72,-0.71l1.06 -0.55 0 30.22c0,0.62 0.14,1.5 -0.23,1.97 1.33,0.73 24.48,0.24 28.19,0.31 -2.13,-1.33 -4.43,-3.33 -4.19,-6.93 0.18,-2.82 2.72,-6.18 5.4,-6.06 0.33,-0.32 0.1,-0.18 0.69,-0.35l2.61 -0.49c0.41,1.22 2.78,12.35 2.8,13.37 -0.56,0.09 -0.87,0.1 -1.27,0.39 0.88,0.04 2.27,0.16 3,-0.24l-0.2 -0.35c0.56,-0.02 0.35,-0.05 0.61,-0.14 0.05,-0.02 0.2,-0.08 0.26,-0.1l9.4 -2.05c1.01,-0.32 2.58,-0.4 3.58,-0.71l2.79 -0.61c1.24,-0.18 -0.17,-0.18 1.28,-0.33 0.4,-0.04 0.39,0.02 0.81,-0.08l1.42 -0.36c0.05,-0.01 0.09,-0.03 0.13,-0.04l4.52 -1.92 1.83 -2.82 0.35 -1.81c0.17,-0.51 0.21,0.4 0.21,-0.66 0,-0.92 -0.26,-0.49 -0.34,-1.43 -0.14,-1.6 -1.05,-2.38 -1.47,-3.72l-0.44 -0.99c-0.02,-0.04 -0.04,-0.08 -0.06,-0.12 -0.02,-0.04 -0.04,-0.08 -0.06,-0.12l-1.31 -2.62c-0.02,-0.05 -0.09,-0.19 -0.12,-0.24 -0.05,-0.1 -0.11,-0.22 -0.18,-0.36l-0.48 -0.95c-0.02,-0.04 -0.04,-0.08 -0.06,-0.12l-2.14 -4.65c-0.07,-0.14 -0.17,-0.34 -0.24,-0.48l-1.14 -2.26c-0.02,-0.04 -0.04,-0.09 -0.05,-0.13l-0.2 -0.69c-0.01,-0.04 -0.03,-0.09 -0.05,-0.13l-0.47 -0.96c-0.07,-0.14 -0.17,-0.34 -0.24,-0.48l-1.55 -3.1c-0.05,-0.1 -0.11,-0.22 -0.18,-0.36l-1.6 -2.87c-0.02,-0.03 -0.05,-0.08 -0.07,-0.11 -0.02,-0.03 -0.04,-0.08 -0.06,-0.12l-0.45 -0.63c-0.94,-1 -0.36,-0.81 -1.69,-1.71l-1.26 -1.24c-0.31,-0.32 -0.06,-0.14 -0.45,-0.44l-5.68 -2.91c-0.57,-0.2 0.27,0.01 -0.54,-0.18l-1.02 -0.23c-0.14,-0.05 0.12,-0.04 -0.4,-0.14 -0.63,-0.12 -1.15,-0 -1.75,-0.22 -1.29,-0.46 -7.44,-0.18 -9.02,-0.18l-0.28 0.05c-0.03,0.05 -0.06,0.11 -0.07,0.15 -0.02,0.04 -0.05,0.1 -0.07,0.15l-6.54 17.09c-0.13,0.15 -3.3,8.77 -3.6,9.64l-0.25 0.43c-0.39,-0.5 -1.65,-4.14 -2.03,-5.11l-1.47 -3.89c-0.11,-0.44 -0.07,-0.99 -0.43,-1.39 -0.52,-0.26 -0.69,-1.13 -1.02,-2l-2.41 -6.35c-0.54,-1.42 -1.07,-2.85 -1.63,-4.28 -0.4,-1.03 -1.29,-3.07 -1.49,-3.96l-0.12 -0.54c-2.51,0 -7.53,-0.53 -9.64,0.18l-1.17 0.26c-0.98,0.27 -3.54,1.93 -4.28,2.69l-1.21 0.93c-0.52,0.33 -0.75,0.79 -1.21,1.11l-0.58 0.32c-0.03,0.02 -0.08,0.05 -0.11,0.07l-1.56 1.3c-0.52,0.3 -0.76,0.74 -1.22,1.1l-0.68 0.39c-0.03,0.02 -0.08,0.05 -0.11,0.07 -0.04,0.03 -0.2,0.16 -0.29,0.25l-0.92 0.87c-0.23,0.15 -0.15,0.07 -0.35,0.19 -0.27,0.16 -0.07,0 -0.33,0.21 -0.35,0.27 -0.09,0.07 -0.36,0.35l-0.86 0.75c-0.14,0.08 -0.1,0.04 -0.24,0.12 -0.57,0.33 -0.88,0.9 -1.44,1.25l-1.55 1.14c-0.73,0.43 -1.18,1.08 -1.91,1.49 -0.03,0.02 -0.08,0.04 -0.12,0.06l-2.3 2.17c-0.11,0.11 -0.31,0.29 -0.36,0.35 -0.49,0.52 -0.19,0.14 -0.45,0.62l-0.53 1.44c-0.35,1.08 -0.37,2.13 -0.76,3.36 -0.01,0.04 -0.03,0.09 -0.04,0.13l-0.75 3.36c-0.1,0.43 -0.05,0.46 -0.18,0.9l-1.26 5.18c-0.05,0.25 -0.02,0.27 -0.04,0.49 -0.02,0.23 0.01,0.24 -0.04,0.49l-0.67 2.26z"/>
   <path class="fil1" d="M25.1 124.18l0.02 -0.66 12.14 0.12 16.1 0.03c2.4,-0.13 24.1,-0.24 24.83,0.02l8.51 0c0.73,-0.27 23.82,-0.13 26.4,-0.02l16.09 0.03 0 0.48 0.01 -0.66c2.89,0.3 10.07,-0.35 12.15,0.26l3.26 -0.75c0.29,-0.09 0.27,-0.06 0.55,-0.16l2.63 -2.02c0.52,-0.93 0.52,-0.55 0.95,-1.2l1.12 -2.99 -0.58 -4.64c-0.87,-1.79 -0.63,-1.55 -1.85,-2.8l-3.57 -2.16c-0.14,-0.05 0.1,-0.04 -0.4,-0.13 -0.64,-0.12 -0.85,0.1 -1.63,-0.16 -0.04,-0.01 -0.08,-0.04 -0.12,-0.05l-0.88 -0.19c-0.73,-0.03 -1.59,0.01 -2.34,0.01 -12.46,0 -24.92,0 -37.38,0 -0.74,0.41 -2.12,0.28 -3,0.24l-2.09 -0.07 -3.95 0.14c-3.71,-0.07 -26.86,0.42 -28.19,-0.31l-20.88 0.06c-1.02,0.02 -1.72,0.42 -3.05,0.38 -0.62,-0.02 -2.47,-0.33 -3.02,-0.43 -3.3,0 -7.98,-0.28 -11.11,-0.01l-0.83 0.24c-0.04,0.01 -0.09,0.04 -0.13,0.05 -0.88,0.25 -1.1,-0.16 -2.26,0.24l-1.07 0.36c-0.04,0.02 -0.09,0.04 -0.13,0.05 -0.04,0.02 -0.08,0.04 -0.12,0.06l-0.74 0.51c-0.03,0.02 -0.07,0.06 -0.1,0.08l-3.54 4.69c-0.06,0.31 -0.01,0.28 -0.1,0.61l-0.1 0.26c-0.01,0.04 -0.04,0.08 -0.05,0.13 -0.01,0.04 -0.04,0.09 -0.05,0.13 -0.42,1.52 -0.03,2.57 0.32,3.64l0.35 1.08c0.15,0.41 0.05,0.18 0.16,0.37 0.02,0.04 0.28,0.34 0.32,0.4l1.63 1.94c0.05,0.06 0.31,0.32 0.35,0.36l0.84 0.59c0.98,0.6 0.19,0.37 1.41,0.74l0.4 0.13c0.95,0.3 0.67,-0.15 0.94,0.5l1.79 0 0 0.48z"/>
   <path class="fil2" d="M113.09 123.67c-2.57,-0.11 -25.67,-0.25 -26.4,0.02l2.08 1.6c0.05,0.05 0.29,0.3 0.35,0.37l0.53 0.54c0.05,0.04 0.22,0.17 0.31,0.23 0.23,0.15 0.15,0.07 0.35,0.19 0.54,0.32 0.74,0.73 1.22,1.1l4.19 3.5c0.03,0.02 0.06,0.06 0.09,0.09l0.82 0.26 0 1.07c-0.8,0.32 -4.15,29.44 -5.24,32.67 -0.14,0.42 -0.18,1.13 -0.13,1.67 0.06,0.66 0.18,0.54 0.32,1.12l0.53 1.97c0.02,0.05 0.08,0.2 0.1,0.25l3.23 3.39c0.03,0.02 0.08,0.04 0.12,0.06l0.95 0.48c0.32,0.15 0.01,0.02 0.38,0.15l0.55 0.17c0.04,0.01 0.09,0.03 0.13,0.05 0.97,0.34 2.93,0.45 4.08,0.05l0.67 -0.22c0.04,-0.01 0.09,-0.03 0.14,-0.04l4.2 -3.49c0.02,-0.04 0.04,-0.08 0.06,-0.12l1.09 -3.2c1.32,-4.72 5.15,-29.25 5.29,-33.7l0.22 -1.74c0.25,-0.75 0.05,-1.3 0.3,-2.02 0.32,-0.91 0.18,-2.23 0.19,-3.23 0.01,-1.51 -0.69,-1.93 -0.72,-3.24z"/>
   <path class="fil3" d="M53.36 123.67l-0.22 0.88c-0.54,1.57 -0.48,2.12 -0.5,3.98l0.24 1.73c0.23,0.69 0.03,0.96 0.16,1.63 0.01,0.05 0.03,0.09 0.04,0.14 0.01,0.04 0.03,0.09 0.05,0.13 0.25,0.76 0.11,1.46 0.27,2.24 2.26,10.74 2.98,27.75 6.99,37.36 0.15,0.24 0.07,0.17 0.18,0.35 0.27,0.44 1.14,0.94 1.55,1.31 0.45,0.4 0.04,0.11 0.65,0.42 0.04,0.02 0.08,0.04 0.12,0.06l0.71 0.36c0.74,0.34 0.97,0.52 1.91,0.6 2.01,0.17 3.78,-0.12 5.49,-1.14 0.03,-0.02 0.08,-0.05 0.11,-0.07 0.03,-0.02 0.07,-0.05 0.11,-0.07l0.85 -0.58c0.83,-0.5 1.76,-1.79 2.16,-2.67l0.46 -1.33c0.01,-0.05 0.03,-0.09 0.04,-0.14l0.37 -1.42c0.4,-1.45 -5.03,-34.69 -5.29,-34.8l0 -1.43c0.62,-0.22 0.07,0.06 0.54,-0.35 0.91,-0.78 1.44,-1.48 2.08,-1.85l0.6 -0.47c0.04,-0.04 0.14,-0.15 0.17,-0.18l2.23 -2.24c0.92,-0.93 1.55,-0.94 2.75,-2.41 -0.72,-0.26 -22.42,-0.15 -24.83,-0.02z"/>
   <path class="fil4" d="M25.1 124.18l0.01 54.41 0.58 1.75c0.02,0.05 0.09,0.19 0.12,0.24l0.6 0.83c0.88,1.38 0.6,0.98 2.27,1.84l1.1 0.51c0.05,0.01 0.11,0.02 0.17,0.03l2.04 0c0.45,-0.05 0.85,-0.12 1.13,-0.22 0.29,-0.1 0.54,-0.14 0.8,-0.27 0.06,-0.03 0.53,-0.4 0.62,-0.46 0.03,-0.02 0.08,-0.05 0.11,-0.07l1.55 -1.31c0.54,-0.62 0.54,-0.96 0.8,-1.71 0.01,-0.04 0.03,-0.09 0.05,-0.13 0.52,-1.47 0.22,-21.2 0.22,-22.85 0,-11.05 0,-22.1 0,-33.14l-12.14 -0.12 -0.02 0.66z"/>
   <path class="fil4" d="M129.18 124.18c0,17.65 0.15,35.92 -0,53.53l0.94 3.35c0.02,0.03 0.05,0.08 0.07,0.11 0.33,0.55 0.62,1.02 1.26,1.42l0.86 0.57c0.33,0.23 -0.06,0.02 0.34,0.19l1.65 0.43 2.3 0c0.41,-0.03 0.41,-0.16 1.28,-0.6 0.12,-0.06 0.2,-0.1 0.36,-0.18l1.23 -0.74c0.71,-0.65 0.68,-0.74 1.09,-1.59l0.18 -0.36c0.15,-0.3 -0.03,0.06 0.12,-0.24 0.64,-1.23 0.48,-0.94 0.48,-2.74l0 -53.57c-2.08,-0.61 -9.26,0.04 -12.15,-0.26l-0.01 0.66z"/>
   <path class="fil5" d="M71.96 31.06l-0.12 0.6c-0.21,0.45 -1.02,0.92 -1.55,2.02l-1.79 3.93c-0.26,0.82 0.01,1.07 -0.35,2.15 -0.52,1.54 0.16,2.82 0.22,3.29l2.58 6.72c0.16,0.26 0.01,0.07 0.21,0.33 0.88,1.13 2.11,2.17 3.29,2.97 0.03,0.02 0.07,0.05 0.1,0.08 0.39,0.28 -0.19,-0.12 0.19,0.16 0.03,0.02 0.07,0.06 0.1,0.08 0.03,0.02 0.07,0.05 0.11,0.07l4.56 1.88c0.53,0.11 1.23,-0.02 1.76,0.03 0.9,0.08 0.46,0.56 1.52,0.3 0.85,-0.21 -0.37,-0.03 0.66,-0.26 0.66,-0.14 1.34,0.05 1.99,-0.16 0.04,-0.01 0.08,-0.04 0.13,-0.05 0.04,-0.01 0.08,-0.04 0.13,-0.05 0.84,-0.27 1.69,-0.35 2.5,-0.72l5.05 -3.72c0.02,-0.03 0.05,-0.08 0.07,-0.11l2.22 -3.33c0.42,-0.68 0.39,-1.33 0.63,-2.05 0.03,-0.08 0.09,-0.25 0.14,-0.4l0.14 -0.4c0.02,-0.05 0.08,-0.2 0.1,-0.26 0.26,-0.81 0.03,-1.78 0.25,-2.63 0.13,-0.49 -0.08,-0.67 -0.13,-1.18 -0.02,-0.26 0,-0.65 0.01,-0.91 0,-0.28 0.01,-0.58 -0.04,-0.85 -0.01,-0.05 -0.03,-0.09 -0.04,-0.14 -0.01,-0.04 -0.03,-0.09 -0.05,-0.13l-0.5 -1.82c-0.1,-0.3 -0.11,-0.4 -0.21,-0.68l-0.29 -0.6c-0.02,-0.04 -0.04,-0.08 -0.06,-0.12l-0.3 -0.6c-0.02,-0.03 -0.05,-0.08 -0.07,-0.11 -0.12,-0.18 -0.06,-0.08 -0.23,-0.3 -0.03,-0.04 -0.13,-0.16 -0.16,-0.2 -0.02,-0.03 -0.05,-0.08 -0.07,-0.11l-0.26 -0.46c-0.12,-0.18 -0.07,-0.1 -0.23,-0.31 -0.03,-0.04 -0.13,-0.16 -0.16,-0.2l-2.7 -2.84c-0.03,-0.02 -0.08,-0.04 -0.12,-0.06 -0.55,-0.33 -0.86,-0.79 -1.42,-1.08l-1.2 -0.59c-0.07,-0.04 -0.35,-0.18 -0.35,-0.18l-2.26 -0.78c-0.68,-0.24 -1.77,-0.08 -2.51,-0.35l-1.25 -0.2c-1.01,0.05 -0.6,0.25 -2.32,0.38 -0.49,0.04 0.1,-0.04 -0.32,0.04l-3.97 1.58c-0.04,0.02 -0.08,0.04 -0.12,0.06l-2.2 1.55c-0.03,0.03 -0.06,0.07 -0.09,0.09 -0.42,0.44 -0.24,0.6 -1.17,0.62z"/>
   <path class="fil6" d="M9.05 183.79c0,-6.08 0,-12.16 0,-18.24 0,-3.04 0,-6.08 0,-9.12 0,-1.74 0.35,-7.92 -0.18,-9.09 -1.15,-0.03 -2.29,-0.06 -3.44,-0.09 -1.11,0.04 -2.22,0.09 -3.33,0.13 -1.34,0.09 -1.92,0.74 -1.92,1.83 -0.36,1.05 -0.04,28.92 -0.04,32.55 0.25,1.07 1.06,1.88 2.33,2.03 2.2,0 4.39,0 6.59,0z"/>
   <path class="fil7" d="M9.05 183.79c2.49,0 4.98,0 7.46,0 1.58,-0.77 1.43,-1.57 1.43,-3.93 -0,-9 -0,-18 -0,-27 0,-2.47 0.31,-3.26 -0.54,-4.46 -1.03,-1.44 -3.11,-1.21 -4.82,-1.03 -1.24,-0.01 -2.47,-0.01 -3.71,-0.02 0.53,1.17 0.18,7.35 0.18,9.09 0,3.04 0,6.08 0,9.12 0,6.08 0,12.16 0,18.24z"/>
   <path class="fil8" d="M5.43 147.24l3.44 0.09 3.71 0.02 0.01 -11.68c0,-0.35 0.01,-0.67 -0.07,-1 -0.11,-0.41 0,-0.04 -0.16,-0.38 -0.29,-0.61 -0.59,-0.84 -1.03,-1.3l-0.35 -0.37c-0.98,-0.84 -1.25,0.23 -1.63,-0.7l-0.72 0c-0.39,0.96 0.37,-0.05 -1.18,0.43 -0.04,0.01 -0.09,0.03 -0.13,0.05 -0.04,0.02 -0.08,0.04 -0.12,0.06 -0.03,0.02 -0.07,0.05 -0.1,0.08l-1.21 1.29c-0.12,0.18 -0.08,0.12 -0.2,0.34 -0.02,0.04 -0.04,0.08 -0.06,0.12 -0.5,1.07 -0.22,11.75 -0.22,12.95z"/>
   <path class="fil9" d="M82.78 86.76c0.3,-0.87 3.46,-9.49 3.6,-9.64 -0.04,-2.01 1.15,-4.73 0.93,-6.88 -0.14,-1.45 -2.14,-3.73 -2.54,-5.2 0.35,-0.83 0.91,-1.66 1.34,-2.48 0.8,-1.51 0.92,-1.15 0.33,-2.73l-3.52 -0.08c-0.5,0.79 -0.44,0.03 -0.48,1.34l0.08 25.22c0.39,1.32 -0.79,-0.16 0.26,0.45z"/>
   <path class="fil10" d="M78.27 60.1c-0.27,1.49 0.58,2.58 1.36,3.88 0.78,1.3 0.82,0.7 -0.85,3.78 -1.92,3.53 -1.11,3.5 -0.18,9.04 0.36,0.4 0.32,0.95 0.43,1.39l1.47 3.89c0.38,0.97 1.64,4.61 2.03,5.11l0.25 -0.43c-1.06,-0.61 0.13,0.87 -0.26,-0.45l-0.08 -25.22c0.04,-1.31 -0.02,-0.55 0.48,-1.34 -1.45,0.03 -3.44,-0.16 -4.65,0.35z"/>
   <path class="fil11" d="M92.05 106.84l3.95 -0.14 -2.74 -12.86c-2.68,-0.11 -5.21,3.24 -5.4,6.06 -0.23,3.6 2.06,5.6 4.19,6.93z"/>
   <path class="fil11" d="M33.68 99.04c0,1.96 -0.15,2.13 0.48,3.79l0.86 1.65c0.56,0.7 1.58,1.68 2.59,1.7l-0.7 0.36c0.55,0.11 2.4,0.41 3.02,0.43 1.32,0.05 2.03,-0.35 3.05,-0.38 0.3,-0.87 0.02,-0.08 1.31,-0.89l2.09 -2.74c0.5,-1.24 -0.16,-0.68 0.53,-1.21 -1.2,-0.48 -7.94,-1.78 -10.15,-2.25 -0.71,-0.15 -2.58,-0.73 -3.08,-0.46z"/>
   <path class="fil12" d="M72.05 60.21c0.98,0 5.74,0.17 6.22,-0.11 1.21,-0.5 3.2,-0.32 4.65,-0.35l3.52 0.08c0.59,1.58 0.47,1.22 -0.33,2.73 -0.43,0.82 -1,1.65 -1.34,2.48 0.4,1.47 2.4,3.75 2.54,5.2 0.21,2.15 -0.97,4.87 -0.93,6.88l6.54 -17.09c0.02,-0.05 0.05,-0.11 0.07,-0.15 0.02,-0.04 0.04,-0.11 0.07,-0.15l0.28 -0.05 -21.41 0 0.12 0.54z"/>
   <path class="fil13" d="M78.6 76.79c-0.93,-5.54 -1.74,-5.51 0.18,-9.04 1.68,-3.08 1.63,-2.48 0.85,-3.78 -0.78,-1.3 -1.63,-2.39 -1.36,-3.88 -0.48,0.28 -5.25,0.11 -6.22,0.11 0.21,0.89 1.09,2.93 1.49,3.96 0.56,1.43 1.09,2.85 1.63,4.28l2.41 6.35c0.33,0.87 0.5,1.74 1.02,2z"/>
   <path class="fil13" d="M33.68 99.04c0.5,-0.27 2.37,0.3 3.08,0.46 2.22,0.48 8.96,1.77 10.15,2.25l0.12 -1.18c0.02,-0.06 0.09,-0.2 0.1,-0.25 0.08,-0.26 0.04,-0.08 0.11,-0.43l0.34 -1.27c0.05,-0.26 0.04,-0.42 0.04,-0.68 -0.39,0.26 0.15,0.07 -0.34,0.09l-6.19 -1.26c-2.01,-0.4 -4.71,-1.17 -6.71,-1.26l-0.48 2.67c-0.11,0.36 -0.21,-0.23 -0.23,0.86z"/>
   <path class="fil13" d="M93.26 93.85l2.74 12.86 2.09 0.07c0.4,-0.29 0.71,-0.3 1.27,-0.39 -0.02,-1.03 -2.39,-12.15 -2.8,-13.37l-2.61 0.49c-0.59,0.16 -0.36,0.02 -0.69,0.35z"/>
   <path class="fil14" d="M89.48 84.85l6.7 -0.03c0.23,-0.72 0.2,-1.63 0.01,-2.35l-6.91 -0.07c-0.83,-0 -1.05,-0.16 -1.19,0.53 -0.02,0.12 0.01,1.45 0.04,1.54 0.19,0.54 0.6,0.37 1.34,0.37z"/>
   <g>
    <circle class="fil15" cx="141.44" cy="25.39" r="25.39"/>
    <path class="fil16" d="M151.49 22.08c-0.26,0.31 -0.1,0.14 -0.33,0.46 -0.91,1.32 -3.33,2.45 -4.99,3.41 -1.51,0.87 -4.27,3.2 -6.32,1.85 -1.78,-1.18 -1.17,-5.31 -1.17,-7.84 0,-3.04 0.02,-6.08 0.04,-9.12 -0.36,0.75 -0.31,3.98 -0.27,4.51 -0.41,0.28 -1.58,0.57 -2.69,1.26 -6.61,4.11 -6.73,13.93 0.06,18.08 5.66,3.46 13.3,0.9 15.55,-5.5 1.25,-3.55 0.19,-5.08 0.12,-7.12z"/>
    <path class="fil17" d="M138.73 10.85c-0.02,3.04 -0.04,6.08 -0.04,9.12 -0,2.53 -0.6,6.66 1.17,7.84 2.04,1.35 4.8,-0.98 6.32,-1.85 1.67,-0.96 4.08,-2.09 4.99,-3.41 0.23,-0.33 0.06,-0.15 0.33,-0.46 -0.15,-1.83 -0.26,-2.71 -1.81,-3.31 -2.46,-0.59 -3.65,1.54 -5.61,2.01l-0.01 -5.33c0.05,-2.12 0.4,-5.31 -0.97,-6.44 -1.8,-1.49 -3.98,-0.29 -4.36,1.84z"/>
   </g>
   <circle class="fil18" cx="82.69" cy="41.69" r="15.59"/>
   <circle class="fil19" cx="141.32" cy="115.08" r="8.65"/>
   <circle class="fil19" cx="25.03" cy="115.08" r="8.65"/>
   <circle class="fil20" cx="99.47" cy="167.13" r="8.31"/>
   <circle class="fil21" cx="67.1" cy="167.23" r="8.31"/>
  </g>
 </g>
</svg>
