<?xml version="1.0" encoding="UTF-8"?>
<!DOCTYPE svg PUBLIC "-//W3C//DTD SVG 1.0//EN" "http://www.w3.org/TR/2001/REC-SVG-20010904/DTD/svg10.dtd">
<!-- Creator: CorelDRAW 2020 (64-Bit) -->
<svg xmlns="http://www.w3.org/2000/svg" xml:space="preserve" width="1.15841in" height="1.30611in" version="1.0" style="shape-rendering:geometricPrecision; text-rendering:geometricPrecision; image-rendering:optimizeQuality; fill-rule:evenodd; clip-rule:evenodd"
viewBox="0 0 1157.99 1305.64"
 xmlns:xlink="http://www.w3.org/1999/xlink"
 xmlns:xodm="http://www.corel.com/coreldraw/odm/2003">
 <defs>
  <style type="text/css">
   <![CDATA[
    .fil0 {fill:black}
   ]]>
  </style>
 </defs>
 <g id="Layer_x0020_1">
  <metadata id="CorelCorpID_0Corel-Layer"/>
  <g id="_2741658438864">
   <path class="fil0" d="M25.5 1165.39c0,45.73 11.2,70.69 12.75,89.25 -29.77,0 -38.25,4.05 -38.25,28.05 0,12.6 10.35,22.95 22.95,22.95l693.62 0c30.8,0 30.8,-51 0,-51l-15.3 0c0.27,-11.93 5.72,-29.32 8.05,-42.95 6.71,-39.21 5.81,-86.6 -3.95,-124.35 -13.38,-51.75 -12.72,-49.79 -35.55,-94.51 -21.24,-41.6 -63.53,-86.47 -101.16,-113.04 -168.31,-118.84 -399.14,-65.59 -499.02,112.98 -3.57,6.38 -4.3,6.17 -7.61,12.79 -3.17,6.34 -3.72,9.61 -6.78,16.17 -18.68,39.91 -29.74,86.59 -29.74,143.66z"/>
   <path class="fil0" d="M652.82 221.86l188.71 0 0 66.3 -186.16 0c-55.36,0 -56.59,86.7 2.55,86.7l183.61 0 0 84.15 -183.61 0c-59.14,0 -57.91,86.7 -2.55,86.7l461.57 0c54.97,0 55.35,-86.7 -2.55,-86.7l-186.16 0 0 -84.15 186.16 0c57.9,0 57.52,-86.7 2.55,-86.7l-188.71 0 0 -66.3 191.26 0c23.02,0 27.56,-10.01 22.55,-30.06 -4.1,-16.39 -7.51,-31.63 -14.12,-47.22 -38.34,-90.42 -125.08,-144.57 -222.64,-144.57 -82.23,0 -150.35,8.81 -211.02,69.49 -22.13,22.13 -35.91,43.2 -49.06,73.35 -5.66,12.96 -11.57,32.26 -14.78,46.5 -4.81,21.35 -2.27,32.52 22.4,32.52z"/>
   <path class="fil0" d="M326.41 56.1l0 721.67 58.65 -2.55c14.16,0 15.12,2.55 28.05,2.55l0 -716.57c0,-15.9 -3.94,-25.18 -12.02,-33.89 -28.31,-30.52 -74.69,-7.62 -74.69,28.78z"/>
   <path class="fil0" d="M841.53 604.37l0 645.17c0,36.92 18.44,53.67 38.32,56.1l10.44 0c19.73,-2.37 37.94,-17.87 37.94,-40.8l0 -668.12 -79.05 0c-5.88,0 -7.65,1.77 -7.65,7.65z"/>
  </g>
 </g>
</svg>
